<?xml version="1.0" encoding="utf-8"?>
<!-- Generator: Adobe Illustrator 25.2.3, SVG Export Plug-In . SVG Version: 6.00 Build 0)  -->
<svg version="1.1" id="Laag_1" xmlns="http://www.w3.org/2000/svg" xmlns:xlink="http://www.w3.org/1999/xlink" x="0px" y="0px"
	 viewBox="0 0 440 100" style="enable-background:new 0 0 440 100;" xml:space="preserve">
<style type="text/css">
	.st0{fill:#FFFFFF;}
</style>
<g>
	<path class="st0" d="M387.6,99.2c-6.9,0-12.5-5.6-12.5-12.5V13.2c0-6.9,5.6-12.5,12.5-12.5h39.1c6.9,0,12.5,5.6,12.5,12.5v73.6
		c0,6.9-5.6,12.5-12.5,12.5H387.6z"/>
	<path d="M426.8,1.5c6.5,0,11.7,5.3,11.7,11.7v73.6c0,6.5-5.3,11.7-11.7,11.7h-39.1c-6.5,0-11.7-5.3-11.7-11.7V13.2
		c0-6.5,5.3-11.7,11.7-11.7H426.8 M426.8,0h-39.1c-7.3,0-13.2,5.9-13.2,13.2v73.6c0,7.3,5.9,13.2,13.2,13.2h39.1
		c7.3,0,13.2-5.9,13.2-13.2V13.2C440,5.9,434.1,0,426.8,0L426.8,0z"/>
</g>
<g>
	<path class="st0" d="M313,99.2c-6.9,0-12.5-5.6-12.5-12.5V13.2c0-6.9,5.6-12.5,12.5-12.5h39.1c6.9,0,12.5,5.6,12.5,12.5v73.6
		c0,6.9-5.6,12.5-12.5,12.5H313z"/>
	<path d="M352.2,1.5c6.5,0,11.7,5.3,11.7,11.7v73.6c0,6.5-5.3,11.7-11.7,11.7H313c-6.5,0-11.7-5.3-11.7-11.7V13.2
		c0-6.5,5.3-11.7,11.7-11.7H352.2 M352.2,0H313c-7.3,0-13.2,5.9-13.2,13.2v73.6c0,7.3,5.9,13.2,13.2,13.2h39.1
		c7.3,0,13.2-5.9,13.2-13.2V13.2C365.4,5.9,359.5,0,352.2,0L352.2,0z"/>
</g>
<g>
	<path class="st0" d="M237.4,99.2c-6.9,0-12.5-5.6-12.5-12.5V13.2c0-6.9,5.6-12.5,12.5-12.5h39.1c6.9,0,12.5,5.6,12.5,12.5v73.6
		c0,6.9-5.6,12.5-12.5,12.5H237.4z"/>
	<path d="M276.5,1.5c6.5,0,11.7,5.3,11.7,11.7v73.6c0,6.5-5.3,11.7-11.7,11.7h-39.1c-6.5,0-11.7-5.3-11.7-11.7V13.2
		c0-6.5,5.3-11.7,11.7-11.7H276.5 M276.5,0h-39.1c-7.3,0-13.2,5.9-13.2,13.2v73.6c0,7.3,5.9,13.2,13.2,13.2h39.1
		c7.3,0,13.2-5.9,13.2-13.2V13.2C289.7,5.9,283.8,0,276.5,0L276.5,0z"/>
</g>
<g>
	<path class="st0" d="M162.8,99.2c-6.9,0-12.5-5.6-12.5-12.5V13.2c0-6.9,5.6-12.5,12.5-12.5h39.1c6.9,0,12.5,5.6,12.5,12.5v73.6
		c0,6.9-5.6,12.5-12.5,12.5H162.8z"/>
	<path d="M201.9,1.5c6.5,0,11.7,5.3,11.7,11.7v73.6c0,6.5-5.3,11.7-11.7,11.7h-39.1c-6.5,0-11.7-5.3-11.7-11.7V13.2
		c0-6.5,5.3-11.7,11.7-11.7H201.9 M201.9,0h-39.1c-7.3,0-13.2,5.9-13.2,13.2v73.6c0,7.3,5.9,13.2,13.2,13.2h39.1
		c7.3,0,13.2-5.9,13.2-13.2V13.2C215.1,5.9,209.2,0,201.9,0L201.9,0z"/>
</g>
<g>
	<path class="st0" d="M87.5,99.2c-6.9,0-12.5-5.6-12.5-12.5V13.2c0-6.9,5.6-12.5,12.5-12.5h39.1c6.9,0,12.5,5.6,12.5,12.5v73.6
		c0,6.9-5.6,12.5-12.5,12.5H87.5z"/>
	<path d="M126.6,1.5c6.5,0,11.7,5.3,11.7,11.7v73.6c0,6.5-5.3,11.7-11.7,11.7H87.5c-6.5,0-11.7-5.3-11.7-11.7V13.2
		c0-6.5,5.3-11.7,11.7-11.7H126.6 M126.6,0H87.5c-7.3,0-13.2,5.9-13.2,13.2v73.6c0,7.3,5.9,13.2,13.2,13.2h39.1
		c7.3,0,13.2-5.9,13.2-13.2V13.2C139.8,5.9,133.9,0,126.6,0L126.6,0z"/>
</g>
<g>
	<path class="st0" d="M13.2,99.2c-6.9,0-12.5-5.6-12.5-12.5V13.2c0-6.9,5.6-12.5,12.5-12.5h39.1c6.9,0,12.5,5.6,12.5,12.5v73.6
		c0,6.9-5.6,12.5-12.5,12.5H13.2z"/>
	<path d="M52.4,1.5c6.5,0,11.7,5.3,11.7,11.7v73.6c0,6.5-5.3,11.7-11.7,11.7H13.2c-6.5,0-11.7-5.3-11.7-11.7V13.2
		c0-6.5,5.3-11.7,11.7-11.7H52.4 M52.4,0H13.2C5.9,0,0,5.9,0,13.2v73.6C0,94.1,5.9,100,13.2,100h39.1c7.3,0,13.2-5.9,13.2-13.2V13.2
		C65.6,5.9,59.7,0,52.4,0L52.4,0z"/>
</g>
</svg>
