<?xml version="1.0" encoding="utf-8"?>
<!-- Generator: Adobe Illustrator 27.6.1, SVG Export Plug-In . SVG Version: 6.00 Build 0)  -->
<svg version="1.1" id="Laag_1" xmlns="http://www.w3.org/2000/svg" xmlns:xlink="http://www.w3.org/1999/xlink" x="0px" y="0px"
	 viewBox="0 0 63 69.9" style="enable-background:new 0 0 63 69.9;" xml:space="preserve">
<style type="text/css">
	.st0{fill:#38870D;}
	.st1{fill:#DFE6E1;}
	.st2{fill:#FFFFFF;}
	.st3{fill:#42145E;}
	.st4{fill:#265938;}
</style>
<path class="st0" d="M54.9,8.6c-2.8-1.2-10.3-3.9-23.7-3.9S10.3,7.4,7.5,8.6C6.7,9,6.2,9.7,6.2,10.7v34.1c0,3.9,1.6,7.5,4.5,10.2
	c7.6,6.9,16.1,10.6,19.3,12c0.8,0.3,1.7,0.3,2.5,0c3.1-1.2,11.7-5,19.3-12c2.8-2.6,4.5-6.3,4.5-10.2V10.7C56.2,9.7,55.7,9,54.9,8.6"
	/>
<path class="st1" d="M50,29.5c0,10.4-8.5,18.8-18.8,18.8s-18.8-8.5-18.8-18.8s8.5-18.8,18.8-18.8S50,19,50,29.5"/>
<path class="st2" d="M48.3,29.5c0,9.4-7.6,17-17,17s-17-7.6-17-17s7.5-17,17-17S48.3,20.1,48.3,29.5"/>
<path class="st3" d="M51.7,63.3c-4.9,0-8.9-4-8.9-8.9s4-8.9,8.9-8.9s8.9,4,8.9,8.9S56.5,63.3,51.7,63.3"/>
<path class="st1" d="M51.7,44.8c-5.4,0-9.7,4.3-9.7,9.7s4.3,9.7,9.7,9.7s9.6-4.4,9.6-9.7S57,44.8,51.7,44.8 M51.7,46.5
	c4.4,0,8,3.6,8,8s-3.6,8-8,8s-8-3.6-8-8S47.3,46.5,51.7,46.5"/>
<path class="st4" d="M35.4,36.8c-0.2-0.6-0.3-1-0.4-1.6c1.4-1.4,2.2-3.3,2.5-5.3c0.5-0.3,1.2-0.7,1.3-2.6c0.1-2.2-0.2-2.8-1-2.8
	c0.1-0.6,0.1-1.7,0.1-2.8c0-1.2-0.1-2.5-0.6-3.4c-0.7-1.1-1.5-1.8-3.2-1.3c-1.5-0.8-2.9-1.5-5.6-0.9c-2.9,0.7-4,1.7-4.3,2.3
	c-0.6,0.8-0.6,2.2-0.6,3.4c0,1.2,0,2.3,0.1,2.8c-0.8,0-1.1,0.6-1,2.8c0.1,2,0.8,2.4,1.3,2.6c0.4,2,1.1,3.9,2.5,5.3l0,0l0,0l0,0
	c-0.1,0.5-0.2,1-0.4,1.6c-1.9,0.7-6.7,2.4-8,3.9l0,0c3.1,3.6,7.7,5.8,12.8,5.8c5,0,9.4-2.2,12.5-5.5c-0.1-0.1-0.2-0.2-0.3-0.3
	C42.1,39.3,37.4,37.5,35.4,36.8z"/>
</svg>
