<?xml version="1.0" encoding="utf-8"?>
<!-- Generator: Adobe Illustrator 27.6.1, SVG Export Plug-In . SVG Version: 6.00 Build 0)  -->
<svg version="1.1" id="Laag_1" xmlns="http://www.w3.org/2000/svg" xmlns:xlink="http://www.w3.org/1999/xlink" x="0px" y="0px"
	 viewBox="0 0 74.7 74.7" style="enable-background:new 0 0 74.7 74.7;" xml:space="preserve">
<style type="text/css">
	.st0{fill:#275937;}
	.st1{fill:#38870D;}
</style>
<path class="st0" d="M37.4,60.9c-13,0-23.5-10.5-23.5-23.5s10.5-23.5,23.5-23.5s23.5,10.5,23.5,23.5S50.3,60.9,37.4,60.9 M70,37.4
	c0-2.8-1.6-5.3-4.5-7.6c1.3-3.3,1.4-6.4,0-8.8s-4.1-3.9-7.6-4.4c-0.5-3.6-1.9-6.2-4.4-7.6c-2.4-1.4-5.4-1.3-8.8,0
	c-2.1-2.8-4.7-4.4-7.4-4.4c-2.8,0-5.3,1.6-7.6,4.5c-3.3-1.3-6.4-1.4-8.8,0s-3.9,4.1-4.4,7.6c-3.6,0.5-6.2,1.9-7.6,4.4
	c-1.4,2.4-1.3,5.4,0,8.8c-2.8,2.2-4.4,4.7-4.4,7.5c0,2.8,1.6,5.3,4.5,7.6c-1.3,3.3-1.4,6.4,0,8.8s4.1,3.9,7.6,4.4
	c0.5,3.6,1.9,6.2,4.4,7.6c2.4,1.4,5.4,1.3,8.8,0c2.2,2.8,4.8,4.5,7.6,4.5s5.3-1.6,7.6-4.5c3.3,1.3,6.4,1.4,8.8,0
	c2.4-1.4,3.9-4.1,4.4-7.6c3.6-0.5,6.2-1.9,7.6-4.4c1.4-2.4,1.3-5.4,0-8.8C68.5,42.7,70,40.1,70,37.4"/>
<path class="st1" d="M37.4,16.3c-11.6,0-21,9.5-21,21s9.5,21,21,21s21-9.5,21-21S48.9,16.3,37.4,16.3"/>
</svg>
