<?xml version="1.0" encoding="utf-8"?>
<!-- Generator: Adobe Illustrator 27.2.0, SVG Export Plug-In . SVG Version: 6.00 Build 0)  -->
<svg version="1.1" id="Laag_1" xmlns="http://www.w3.org/2000/svg" xmlns:xlink="http://www.w3.org/1999/xlink" x="0px" y="0px"
	 viewBox="0 0 63 69.9" style="enable-background:new 0 0 63 69.9;" xml:space="preserve">
<style type="text/css">
	.st0{fill:#38870D;}
	.st1{fill:#DFE6E1;}
	.st2{fill:#FFFFFF;}
	.st3{fill:#42145E;}
	.st4{fill:#265938;}
</style>
<path class="st0" d="M56.2,6.9c-3-1.3-10.9-4.1-25.2-4.1S8.9,5.6,5.9,6.9C5,7.3,4.5,8.1,4.5,9.1v36.2c0,4.1,1.7,8,4.8,10.8
	c8.1,7.3,17.1,11.3,20.5,12.7c0.9,0.3,1.8,0.3,2.7,0c3.3-1.3,12.4-5.3,20.5-12.7c3-2.8,4.8-6.7,4.8-10.8V9.1
	C57.6,8.1,57.1,7.3,56.2,6.9"/>
<path class="st1" d="M51,29.1c0,11-9,20-20,20s-20-9-20-20s9-20,20-20S51,18,51,29.1"/>
<path class="st2" d="M49.2,29.1c0,10-8.1,18.1-18.1,18.1s-18.1-8.1-18.1-18.1S21,11,31.1,11S49.2,19.1,49.2,29.1"/>
<path class="st3" d="M52.8,65c-5.2,0-9.4-4.2-9.4-9.4s4.2-9.4,9.4-9.4c5.2,0,9.4,4.2,9.4,9.4S57.9,65,52.8,65"/>
<path class="st1" d="M52.8,45.4c-5.7,0-10.3,4.6-10.3,10.3s4.6,10.3,10.3,10.3S63,61.3,63,55.7S58.4,45.4,52.8,45.4 M52.8,47.2
	c4.7,0,8.5,3.8,8.5,8.5s-3.8,8.5-8.5,8.5s-8.5-3.8-8.5-8.5S48.1,47.2,52.8,47.2"/>
<path class="st1" d="M57.7,51.9l-5.1,8.4c-0.1,0.2-0.4,0.4-0.7,0.4h0c-0.3,0-0.5-0.1-0.7-0.4l-3.3-5.5c-0.2-0.3-0.1-0.8,0.2-1
	c0.3-0.2,0.7-0.2,1,0l2.7,2.4l4.6-5.2c0.3-0.3,0.7-0.3,1-0.1C57.8,51.1,57.9,51.5,57.7,51.9"/>
<path class="st4" d="M35.5,36.9c-0.2-0.6-0.3-1.1-0.4-1.7c1.5-1.5,2.3-3.5,2.7-5.6c0.5-0.3,1.3-0.7,1.4-2.8c0.1-2.3-0.2-3-1.1-3
	c0.1-0.6,0.1-1.8,0.1-3c0-1.3-0.1-2.7-0.6-3.6c-0.7-1.2-1.6-1.9-3.4-1.4c-1.6-0.8-3.1-1.6-5.9-1c-3.1,0.7-4.2,1.8-4.6,2.4
	c-0.6,0.9-0.6,2.3-0.6,3.6c0,1.3,0,2.4,0.1,3c-0.9,0-1.2,0.6-1.1,3c0.1,2.1,0.9,2.5,1.4,2.8c0.4,2.1,1.2,4.1,2.7,5.6c0,0,0,0,0,0
	l0,0l0,0c-0.1,0.5-0.2,1.1-0.4,1.7c-2,0.7-7.1,2.6-8.5,4.1c0,0,0,0,0,0c3.3,3.8,8.2,6.2,13.6,6.2c5.3,0,10-2.3,13.3-5.8
	c-0.1-0.1-0.2-0.2-0.3-0.3C42.6,39.5,37.6,37.6,35.5,36.9z"/>
</svg>
