<?xml version="1.0" encoding="utf-8"?>
<!-- Generator: Adobe Illustrator 27.6.1, SVG Export Plug-In . SVG Version: 6.00 Build 0)  -->
<svg version="1.1" id="Laag_1" xmlns="http://www.w3.org/2000/svg" xmlns:xlink="http://www.w3.org/1999/xlink" x="0px" y="0px"
	 viewBox="0 0 74.7 74.7" style="enable-background:new 0 0 74.7 74.7;" xml:space="preserve">
<style type="text/css">
	.st0{fill:#DFE6E1;}
</style>
<path class="st0" d="M49.6,36.3c0.7-0.5,1.3-1.1,1.4-2.2c0.1-1.3-1.1-2.3-2.5-2.3h-6.9c-0.4,0-0.6-0.4-0.5-0.7
	c0.9-2.5,1.1-3.7,1.1-6c0-1.9-0.8-2.9-1.5-3.1c-0.7-0.1-1.2,0.4-1.5,1.5c-0.6,2.9-2,6.2-3.8,8.4c-1.3,1.6-3,2.3-4.6,2.5
	c-0.3,2.1-0.7,6-0.7,6.3C30,41,29.9,41,29.8,41v-6.4c0,0,0-0.5-0.5-0.5h-5.4v14.2h5.4c0.3,0,0.5-0.3,0.5-0.5v-2.2h1.9
	c3.2,0,2,2.5,8.2,2.6c1.6,0,4.7,0.3,6.7-0.4c1.8-0.6,2.2-2.2,1.7-3.2c0.5-0.3,1.4-1,1.6-2.1c0.2-1.2-0.9-1.9-0.9-1.9
	s1.5-0.5,1.6-2.1C50.6,37.1,49.6,36.3,49.6,36.3"/>
</svg>
