<?xml version="1.0" encoding="utf-8"?>
<!-- Generator: Adobe Illustrator 20.1.0, SVG Export Plug-In . SVG Version: 6.00 Build 0)  -->
<svg version="1.1" id="Layer_1" xmlns="http://www.w3.org/2000/svg" xmlns:xlink="http://www.w3.org/1999/xlink" x="0px" y="0px"
	 viewBox="0 0 512 512" style="enable-background:new 0 0 512 512;" xml:space="preserve">
<path d="M400,249v14H263v137h-14V263H112v-14h137V112h14v137H400z M512,256c0,68.4-26.6,132.7-75,181c-48.4,48.4-112.6,75-181,75
	s-132.7-26.6-181-75C26.6,388.7,0,324.4,0,256S26.6,123.3,75,75S187.6,0,256,0s132.7,26.6,181,75S512,187.6,512,256z M499.1,256
	c0-64.9-25.3-126-71.2-171.9C382,38.2,320.9,12.9,256,12.9c-64.9,0-126,25.3-171.9,71.2C38.2,130,12.9,191.1,12.9,256
	c0,64.9,25.3,126,71.2,171.9c45.9,45.9,107,71.2,171.9,71.2c64.9,0,126-25.3,171.9-71.2C473.8,382,499.1,320.9,499.1,256z"/>
</svg>
