<?xml version="1.0" encoding="utf-8"?>
<!-- Generator: Adobe Illustrator 20.1.0, SVG Export Plug-In . SVG Version: 6.00 Build 0)  -->
<svg version="1.1" id="Layer_1" xmlns="http://www.w3.org/2000/svg" xmlns:xlink="http://www.w3.org/1999/xlink" x="0px" y="0px"
	 viewBox="0 0 512 512" style="enable-background:new 0 0 512 512;" xml:space="preserve">
<style type="text/css">
	.st0{fill:#01689B;}
</style>
<path class="st0" d="M400,247v18H265v135h-18V265H112v-18h135V112h18v135H400z M512,256c0,68.4-26.6,132.7-75,181
	c-48.4,48.4-112.6,75-181,75s-132.7-26.6-181-75C26.6,388.7,0,324.4,0,256S26.6,123.3,75,75S187.6,0,256,0s132.7,26.6,181,75
	S512,187.6,512,256z M493,256c0-63.3-24.7-122.8-69.4-167.6S319.3,19,256,19S133.2,43.7,88.4,88.4S19,192.7,19,256
	s24.7,122.8,69.4,167.6S192.7,493,256,493s122.8-24.7,167.6-69.4C468.3,378.8,493,319.3,493,256z"/>
</svg>
