<?xml version="1.0" encoding="utf-8"?>
<!-- Generator: Adobe Illustrator 27.2.0, SVG Export Plug-In . SVG Version: 6.00 Build 0)  -->
<svg version="1.1" id="Laag_1" xmlns="http://www.w3.org/2000/svg" xmlns:xlink="http://www.w3.org/1999/xlink" x="0px" y="0px"
	 viewBox="0 0 74.7 74.7" style="enable-background:new 0 0 74.7 74.7;" xml:space="preserve">
<style type="text/css">
	.st0{fill:#275937;}
	.st1{fill:#38870D;}
	.st2{fill:#DFE6E1;}
</style>
<path class="st0" d="M37.4,64.2c-14.8,0-26.8-12-26.8-26.8s12-26.8,26.8-26.8c14.8,0,26.8,12,26.8,26.8S52.2,64.2,37.4,64.2
	 M74.7,37.4c0-3.2-1.8-6.1-5.1-8.7c1.5-3.8,1.6-7.3,0-10c-1.6-2.7-4.7-4.4-8.7-5c-0.6-4.1-2.2-7.1-5-8.7c-2.7-1.6-6.2-1.5-10,0
	C43.5,1.8,40.5,0,37.4,0c-3.2,0-6.1,1.8-8.7,5.1c-3.8-1.5-7.3-1.6-10,0c-2.7,1.6-4.4,4.7-5,8.7c-4.1,0.6-7.1,2.2-8.7,5
	c-1.6,2.7-1.5,6.2,0,10C1.8,31.3,0,34.2,0,37.4s1.8,6.1,5.1,8.7c-1.5,3.8-1.6,7.3,0,10c1.6,2.7,4.7,4.4,8.7,5c0.6,4.1,2.2,7.1,5,8.7
	c2.7,1.6,6.2,1.5,10,0c2.5,3.2,5.5,5.1,8.7,5.1c3.2,0,6.1-1.8,8.7-5.1c3.8,1.5,7.3,1.6,10,0c2.7-1.6,4.4-4.7,5-8.7
	c4.1-0.6,7.1-2.2,8.7-5c1.6-2.7,1.5-6.2,0-10C72.9,43.5,74.7,40.5,74.7,37.4"/>
<path class="st1" d="M37.4,13.3c-13.3,0-24,10.8-24,24s10.8,24,24,24s24-10.8,24-24S50.6,13.3,37.4,13.3"/>
<path class="st2" d="M51.3,36.1c0.8-0.6,1.5-1.2,1.6-2.5C53,32.1,51.6,31,50,31h-7.9c-0.4,0-0.7-0.4-0.6-0.8c1-2.9,1.3-4.2,1.3-6.9
	c0-2.2-0.9-3.3-1.7-3.5c-0.8-0.1-1.4,0.4-1.7,1.7c-0.7,3.3-2.3,7.1-4.3,9.6c-1.5,1.8-3.4,2.6-5.2,2.9c-0.3,2.4-0.8,6.9-0.8,7.2
	c-0.1,0.3-0.3,0.3-0.4,0.3v-7.3c0,0,0-0.6-0.6-0.6h-6.2v16.2h6.2c0.3,0,0.6-0.3,0.6-0.6v-2.5h2.2c3.6,0,2.3,2.9,9.4,3
	c1.8,0,5.4,0.3,7.6-0.5c2.1-0.7,2.5-2.5,1.9-3.6c0.6-0.3,1.6-1.1,1.8-2.4c0.2-1.4-1-2.2-1-2.2c0,0,1.7-0.6,1.8-2.4
	C52.5,37,51.3,36.1,51.3,36.1"/>
</svg>
