<?xml version="1.0" encoding="utf-8"?>
<!-- Generator: Adobe Illustrator 27.2.0, SVG Export Plug-In . SVG Version: 6.00 Build 0)  -->
<svg version="1.1" id="Laag_1" xmlns="http://www.w3.org/2000/svg" xmlns:xlink="http://www.w3.org/1999/xlink" x="0px" y="0px"
	 viewBox="0 0 69 67.6" style="enable-background:new 0 0 69 67.6;" xml:space="preserve">
<style type="text/css">
	.st0{fill:#39870C;}
	.st1{fill:#42145F;}
	.st2{fill:#275937;}
</style>
<path class="st0" d="M60.6,43.6H8.3V8.3h52.3V43.6z M64.6,1.8H4.4C3,1.8,1.8,2.9,1.8,4.4v45.7c0,1.4,1.2,2.6,2.6,2.6H26
	c0,0-0.7,2.5-2,6.6c-0.8,2.4-3.1,2.6-3.8,2.6h-2.8c-0.7,0-1.3,0.6-1.3,1.3v2.6h36.6v-2.6c0-0.7-0.6-1.3-1.3-1.3h-2.8
	c-0.6,0-3-0.2-3.8-2.6c-0.5-1.6-0.9-3-1.2-4c0,0-5.8-0.8-11.7-2c-0.4-0.1-0.4-0.4-0.3-0.5h32.9c1.4,0,2.6-1.2,2.6-2.6V4.4
	C67.2,2.9,66,1.8,64.6,1.8"/>
<rect x="35.8" y="18.8" class="st0" width="5.2" height="10.5"/>
<rect x="43.6" y="13.5" class="st1" width="5.2" height="15.7"/>
<rect x="51.5" y="17.4" class="st2" width="5.2" height="11.8"/>
<path class="st1" d="M43.6,34.5c1.4,0,2.5,1.1,2.5,2.5c0,1.4-1.1,2.5-2.5,2.5s-2.5-1.1-2.5-2.5C41.1,35.7,42.2,34.5,43.6,34.5
	 M43.6,42c2.3,0,4.2-1.6,4.8-3.7H58v-2.6h-9.6c-0.6-2.1-2.5-3.7-4.8-3.7s-4.2,1.6-4.8,3.7H12.3v2.6h26.6C39.4,40.5,41.3,42,43.6,42"
	/>
<path class="st2" d="M20.7,31.8c4.7,0,8.5-3.8,8.5-8.5c0-1.7-0.5-3.2-1.3-4.5l-7.8,4.5v-8.4c-4.3,0.4-7.8,4-7.8,8.4
	C12.3,28,16.1,31.8,20.7,31.8"/>
<path class="st1" d="M22.8,10.1v8.5l7.2-4.5C28.5,11.7,25.8,10.1,22.8,10.1"/>
</svg>
