<?xml version="1.0" encoding="utf-8"?>
<!-- Generator: Adobe Illustrator 19.2.1, SVG Export Plug-In . SVG Version: 6.00 Build 0)  -->
<svg version="1.1" id="logo" xmlns="http://www.w3.org/2000/svg" xmlns:xlink="http://www.w3.org/1999/xlink" x="0px" y="0px"
	 viewBox="0 0 44 77" style="enable-background:new 0 0 44 77;" xml:space="preserve">
<style type="text/css">
	.st0{fill:#154273;}
	.st1{fill:#FFFFFF;}
</style>
<g>
	<g>
		<g>
			<g>
				<rect class="st0" width="44" height="77"/>
				<path class="st1" d="M22.8,57H22v-2.1h0.8V57z M26.2,47.7h-0.8v-2.1h0.8V47.7z M12.1,44c-0.1,0-0.4,0-0.4,0.1s0.2,0,0.4,0.1
					c0.6,0.1,0.9,0.4,1.3,0.4c0.4,0,0.8-0.3,0.6-0.8c0-0.1-0.1-0.1-0.1,0c-0.1,0.2-0.4,0.4-0.7,0.4C12.8,44.1,12.7,44,12.1,44z
					 M7.8,46.1c0.1,0.1,0.8,1-0.3,1.4c-0.1,0-0.1,0.1,0,0.1c0.8,0.3,1.2-0.3,1.2-0.3c0.4,0.9-0.2,1.5-0.2,1.5
					c0.1,0.2,0.5,0.5,1.1,0.6c0.2-0.1,0.5-0.3,0.7-0.7c0,0,0.2,0.4,0,0.8c1.7,0.2,2.3-1.2,3.6-0.9c0,0,0.1,0,0.1-0.1
					c0-0.8-0.5-2.3-2.1-2.6c-1.6-0.3-1.2-1-1.2-1c0.7,0,1.1,0.3,1.1,0.3c0.1-0.2-0.1-0.4-0.1-0.4c0.1-0.1,0.1-0.3,0.1-0.3
					c-0.8,0-0.9-0.2-0.9-0.2c-0.1-0.5,0.2-1.1,1.3-0.4c0.3-0.2,0.3-0.6,0.3-0.6c0.1,0,0.1-0.2,0.1-0.2c0-0.2-0.9-0.7-1.1-0.8
					c-0.1-0.3-0.4-0.7-1.5-0.5c-0.5,0.1-0.9-0.1-0.7-0.4c0,0-0.1-0.1-0.1,0c-0.1,0.1-0.3,0.4,0.2,0.7c0.5,0.2,0.5,0.7,0.5,0.8
					c0,0.1-0.1,0.1-0.1,0c-0.2-0.8-1.3-1-2-0.6c0,0.4,0.5,0.7,0.8,0.7c0.1,0,0.4-0.2,0.4-0.3c0-0.1,0.1-0.1,0.1,0
					c0.1,0.3-0.3,0.9-1,0.5c-0.7,0.7-0.4,1.5-0.3,1.8c0.1,0.5-0.1,1-0.6,0.8c0,0-0.1,0-0.1,0C6.9,46,7.3,46.4,7.8,46.1z M11.4,42.8
					c-0.3,0.3-0.8,0.3-0.9-0.3C11.1,42.5,11.4,42.6,11.4,42.8z M30.8,44.1c-0.3,0-0.6-0.1-0.7-0.4c0-0.1-0.1-0.1-0.1,0
					c-0.2,0.6,0.2,0.8,0.6,0.8c0.4,0,0.7-0.3,1.3-0.4c0.3,0,0.5,0,0.5-0.1c0-0.1-0.4-0.1-0.5-0.1C31.3,44,31.2,44.1,30.8,44.1z
					 M37.1,45.7C37.1,45.6,37.1,45.7,37.1,45.7c-0.5,0.2-0.8-0.3-0.7-0.9c0.1-0.3,0.3-1.1-0.3-1.8c-0.6,0.4-1.1-0.2-1-0.5
					c0-0.1,0.1-0.1,0.1,0c0,0.2,0.2,0.3,0.3,0.3c0.3,0,0.7-0.3,0.8-0.7c-0.7-0.4-1.8-0.3-2,0.6c0,0.1-0.2,0.1-0.1,0
					c0-0.1,0-0.6,0.5-0.8c0.4-0.2,0.3-0.5,0.2-0.7c0,0-0.1,0-0.1,0c0.2,0.3-0.2,0.4-0.7,0.4c-1-0.1-1.4,0.2-1.5,0.5
					c-0.2,0.1-1.1,0.6-1.1,0.8c0,0.1,0,0.2,0.1,0.2c0,0,0,0.4,0.3,0.6c1.1-0.7,1.4,0,1.3,0.4c0,0-0.2,0.2-1,0.2c0,0,0,0.3,0.1,0.3
					c0,0-0.2,0.2,0,0.4c0,0,0.4-0.3,1.1-0.3c0,0,0.4,0.7-1.2,1c-1.6,0.3-2.1,1.8-2.1,2.6c0,0,0,0.1,0,0.1c1.3-0.2,1.9,1.1,3.6,0.9
					c-0.2-0.4,0-0.8,0-0.8c0.1,0.3,0.5,0.6,0.7,0.7c0.6-0.1,1-0.4,1.1-0.6c0,0-0.6-0.5-0.2-1.5c0,0,0.4,0.6,1.2,0.3
					c0.1,0,0.1-0.1,0-0.1c-1.1-0.4-0.4-1.3-0.3-1.4C36.7,46.4,37.1,46,37.1,45.7z M33.5,42.5c-0.1,0.6-0.6,0.6-0.9,0.3
					C32.6,42.6,32.9,42.5,33.5,42.5z M21.7,33.2c0,0.1,0.1,0.3,0.1,0.3c0.1,0.1,0.1,0.2,0,0.3c0,0-0.1,0.1-0.3,0
					c-0.1,0-0.2-0.1-0.3-0.1c-0.2,0-0.4,0.2-0.4,0.3c0,0.1,0.1,0.3,0.4,0.3c0.1,0,0.3-0.1,0.3-0.1c0.1-0.1,0.2-0.1,0.3,0
					c0,0,0,0.5-0.1,0.9c-0.4,0.1-0.6,0.4-0.6,0.6c0,0.5,0.5,0.8,0.8,0.9c0.3-0.2,0.8-0.4,0.8-0.9c0-0.2-0.2-0.5-0.6-0.6
					c0-0.4-0.1-0.9-0.1-0.9c0,0,0.1-0.1,0.3,0c0.1,0,0.2,0.1,0.3,0.1c0.2,0,0.4-0.2,0.4-0.3c0-0.1-0.1-0.3-0.4-0.3
					c-0.1,0-0.3,0.1-0.3,0.1c-0.1,0.1-0.2,0.1-0.3,0c0,0-0.1-0.1,0-0.3c0-0.1,0.1-0.2,0.1-0.3c0-0.2-0.2-0.4-0.3-0.4
					C21.9,32.8,21.7,32.9,21.7,33.2z M22,36.7c-0.3,0-0.6,0.3-0.6,0.6c0,0.3,0.3,0.6,0.6,0.6c0.3,0,0.6-0.3,0.6-0.6
					S22.3,36.7,22,36.7z M22,42.3c2.4,0,3.7,0.5,3.7,0.5c0-1.2,0-1.8,0.7-1.8c-0.4-1,1.2-1.4,1.2-2.7c0-0.8-0.6-1-0.8-1
					c-0.5,0-0.5,0.3-0.9,0.3c-0.1,0-0.1,0-0.1,0c0,0.2,0.1,0.4,0.3,0.4c0.3,0,0.3-0.3,0.5-0.3c0.1,0,0.2,0.1,0.2,0.4
					c0,0.5-0.4,1.2-0.8,1.6c-0.1-0.1-0.2-0.2-0.4-0.2c-0.2,0-0.5,0.3-0.5,0.6c0,0.1,0,0.2,0.1,0.3c-0.1,0.1-0.3,0.1-0.4,0.1
					c-0.2,0-0.5-0.1-0.5-0.5c0-0.9,1.3-1.8,1.3-3c0-0.6-0.4-1.1-1.2-1.1c-0.9,0-0.7,0.8-1.4,0.8c0,0-0.1,0-0.1,0
					c0,0,0.1,0.5,0.5,0.5c0.4,0,0.5-0.7,0.9-0.7c0.1,0,0.3,0.1,0.3,0.6c0,0.4-0.2,1-0.5,1.5c-0.1-0.1-0.2-0.2-0.4-0.2
					c-0.3,0-0.5,0.3-0.5,0.7c0,0.2,0.1,0.5,0.2,0.6c-0.2,0.2-0.4,0.4-0.6,0.4c-0.5,0-0.7-0.3-0.7-0.6c0-0.3,0.6-0.5,0.6-1
					c0-0.4-0.2-0.6-0.5-0.6c-0.2,0-0.4,0.2-0.4,0.2c0,0-0.1-0.2-0.4-0.2c-0.2,0-0.5,0.2-0.5,0.6c0,0.5,0.6,0.7,0.6,1
					c0,0.3-0.2,0.6-0.7,0.6c-0.3,0-0.5-0.2-0.6-0.4c0.2-0.2,0.2-0.4,0.2-0.6c0-0.4-0.2-0.7-0.5-0.7c-0.1,0-0.3,0.1-0.4,0.2
					c-0.3-0.6-0.5-1.2-0.5-1.5c0-0.5,0.2-0.6,0.3-0.6c0.4,0,0.5,0.7,0.9,0.7c0.4,0,0.5-0.4,0.5-0.5c0,0,0,0-0.1,0
					c-0.7,0-0.6-0.8-1.4-0.8c-0.8,0-1.2,0.6-1.2,1.1c0,1.2,1.3,2,1.3,3c0,0.4-0.3,0.5-0.5,0.5c-0.1,0-0.2,0-0.4-0.1
					c0-0.1,0.1-0.2,0.1-0.3c0-0.3-0.2-0.6-0.5-0.6c-0.2,0-0.3,0.1-0.4,0.2c-0.4-0.5-0.8-1.1-0.8-1.6c0-0.3,0.1-0.4,0.2-0.4
					c0.2,0,0.2,0.3,0.5,0.3c0.2,0,0.3-0.3,0.3-0.4c0,0-0.1,0-0.1,0c-0.5,0-0.4-0.3-0.9-0.3c-0.2,0-0.8,0.1-0.8,1
					c0,1.3,1.6,1.7,1.2,2.7c0.7-0.1,0.7,0.6,0.7,1.8C18.3,42.8,19.6,42.3,22,42.3z M17.7,44.1c-0.6,0.1-1.1,0.3-1.3,0.3
					c0-0.3,0.1-0.5,0.4-0.6c0,0,0,0,0-0.1c-0.6-0.4-0.9,0.3-0.9,0.4c-0.2,0-0.5,0-0.5,0.3c0,0.8-1.9,1.3-2.3,1.3
					c0.8,0.3,1.1,1.2,1.1,1.2c0.6-0.5,1.2-1,1.3-1c0.1,0,0.2,0.2,0.2,0.3c0,0,0,0,0.1,0c0.3-0.4,0.1-0.5,0.1-0.7
					c0-0.1,0-0.5,0.4-0.4v5.4l-0.2,0c-0.1,0-0.9-0.7-1.8-1.3c-0.9-0.6-1.4-0.2-2.4,0.3c-1.4,0.7-2.7,0.1-2.7,0.1
					C8,50.6,7.6,53,7.6,53c-0.2,0.1-0.6,0.2-1,0.2c-0.9,0-1.1-0.5-1.1-0.9c0-1.4,1.7-2,1.7-3.3c0-0.3-0.2-1.7-1.8-1.7
					c-0.2,0-1.5,0-1.5,0c-0.6,0-0.8-0.5-0.9-0.6c0-0.1-0.1,0-0.1,0c0,0.1-0.1,0.3-0.1,0.6c0,0.5,0.3,0.9,0.9,0.9
					c0.3,0,0.5-0.1,0.6-0.1c0.1,0,0.1,0,0.1,0c-0.3,0.3-0.3,0.9-0.2,1c0,0,0.1,0,0.1,0c0.2-0.6,0.7-1.1,1.4-1.1c0.9,0,0.9,0.8,0.9,1
					c0,1.1-2,1.9-2,3.4c0,1.5,1.6,1.9,2.6,1.6c-0.1,1.5-1.8,2.1-1.9,1c0,0,0-0.1-0.1,0c-0.2,0.5-0.1,1,0.6,1.2c0.1,0,0,0,0,0.1
					c-0.7,0.4-0.3,2.2-0.3,2.7C5.8,59.7,5,59.6,5,59.6c0,0-0.1,0,0,0.1c0.5,0.6,1.1,0,1.1,0c0.5,0.2,0.2,0.6-0.1,0.8
					c-0.1,0-0.1,0.1,0,0.1c0.1,0,0.8,0.1,0.9-0.5c0.3,0.4,0.8,0.2,0.9,0.2c0.1-0.1,0.8-0.3,0.9,0.5c0,0.1,0,0,0.1,0
					c0.5-0.7,0-1.1-0.4-1.1c0,0,0.4-0.4,0.8,0.1c0,0,0.1,0,0.1,0c0-0.8-0.6-0.9-1.1-0.5c0-0.1-0.2-0.5,0.5-0.5c0,0,0.1,0,0-0.1
					c-0.5-0.5-0.9,0-1,0.1c-0.2,0.3-0.8,0.2-0.8,0.2c0.2-2.9,2.7-1.9,3.1-3.3c0-0.1,0.1,0,0.1,0c0.1,0.3,1,0.4,1.1-0.3
					c0,0,0-0.1,0,0c-0.7,0.7-2.4-1.6-0.1-3.4c1.9-1.6,3.7-0.7,4.3-0.2c0,0.2-0.1,0.3-0.2,0.3c0,0,0,0,0,0.1c0.2,0.1,0.4,0,0.6-0.1
					c0.4,0.3,0.1,0.7-0.1,0.8c0,0,0,0,0,0.1c0.4,0.1,0.7-0.3,0.7-0.5l0.1,0v1.6c0,2.3,2.7,2.7,5.7,4.6c3-2,5.7-2.3,5.7-4.6v-1.6
					l0.1,0c0,0.2,0.3,0.6,0.7,0.5c0,0,0,0,0-0.1c-0.2-0.1-0.5-0.5-0.1-0.8c0.1,0.2,0.4,0.2,0.6,0.1c0,0,0,0,0-0.1
					c-0.1,0-0.2-0.1-0.2-0.3c0.7-0.5,2.4-1.4,4.3,0.2c2.3,1.9,0.6,4.2-0.1,3.4c0,0,0,0,0,0c0.2,0.7,1,0.6,1.1,0.3c0,0,0,0,0.1,0
					c0.3,1.4,2.9,0.4,3.1,3.3c0,0-0.6,0.1-0.8-0.2c-0.1-0.1-0.5-0.6-1-0.1c0,0,0,0.1,0,0.1c0.7,0,0.5,0.5,0.5,0.5
					c-0.4-0.4-1.1-0.3-1.1,0.5c0,0.1,0,0.1,0,0c0.4-0.5,0.8-0.1,0.8-0.1c-0.3,0-0.9,0.5-0.3,1.1c0,0,0,0.1,0.1,0
					c0.1-0.8,0.8-0.5,0.9-0.5c0.1,0,0.6,0.2,0.9-0.2c0.1,0.6,0.9,0.5,0.9,0.5c0,0,0.1,0,0-0.1c-0.3-0.2-0.6-0.6-0.1-0.8
					c0,0,0.6,0.6,1.1,0c0-0.1,0-0.1,0-0.1c-0.1,0-0.8,0.1-0.7-0.6c0-0.5,0.4-2.2-0.3-2.6c0,0-0.1,0,0-0.1c0.7-0.2,0.8-0.6,0.5-1.2
					c0-0.1-0.1-0.1-0.1,0c0,1.1-1.8,0.6-1.9-1c1,0.2,2.6-0.1,2.6-1.6c0-1.5-2-2.3-2-3.4c0-0.2,0-1,0.9-1c0.7,0,1.3,0.5,1.4,1.1
					c0,0,0,0,0.1,0c0.1-0.1,0.1-0.7-0.2-1c0,0,0-0.1,0.1,0c0.1,0,0.3,0.1,0.6,0.1c0.6,0,0.9-0.3,0.9-0.9c0-0.3-0.1-0.5-0.1-0.6
					c0,0,0-0.1-0.1,0c-0.1,0.2-0.2,0.6-0.9,0.6c0,0-1.3,0-1.5,0c-1.7,0-1.8,1.3-1.8,1.7c0,1.4,1.7,2,1.7,3.3c0,0.3-0.2,0.9-1.1,0.9
					c-0.4,0-0.8-0.1-1-0.2c0,0-0.4-2.4-1.6-3.3c0,0-1.4,0.7-2.7-0.1c-1-0.6-1.5-0.9-2.4-0.3c-0.9,0.6-1.7,1.3-1.8,1.3l-0.2,0v-5.4
					c0.4,0,0.5,0.3,0.4,0.4c0,0.1-0.2,0.2,0.1,0.7c0,0,0.1,0,0.1,0c0-0.1,0.1-0.3,0.2-0.3s0.8,0.5,1.3,1c0,0,0.3-1,1.1-1.2
					c-0.4-0.1-2.3-0.5-2.3-1.3c0-0.3-0.3-0.3-0.5-0.3c0,0-0.3-0.8-0.9-0.4c0,0,0,0.1,0,0.1c0.2,0.1,0.4,0.3,0.4,0.6
					c-0.5-0.2-2.9-0.8-5.6-0.8c-1.3,0-2.6,0.2-3.5,0.3v1.9h-0.7V44.1L17.7,44.1 M12.6,63.4c-0.2-0.1-0.3-0.2-0.3-0.5v-1.2
					c-0.3-0.1-1.2-0.5-3.1-0.5c-1.5,0-2,0.3-2,0.5L6.8,64c0,0,0.6-0.6,2.8-0.4c2.7,0.2,5.4,1.7,5.4,0.1v-1
					C12.9,62.7,12.6,63.3,12.6,63.4z M29,62.7v1c0,1.7,2.8,0.1,5.4-0.1c2.2-0.1,2.8,0.4,2.8,0.4l-0.4-2.2c0-0.1-0.5-0.5-2-0.5
					c-1.8,0-2.8,0.3-3.1,0.5v1.2c0,0.3-0.1,0.4-0.3,0.5C31.4,63.3,31.1,62.7,29,62.7z M22,61.7c4.3,0,8.6,0.2,9.2,0.9
					c0,0,0.1,0,0.1,0v-2.3c0-0.7-4.5-1-9.2-1s-9.2,0.4-9.2,1v2.3c0,0,0,0.1,0.1,0C13.4,61.9,17.7,61.7,22,61.7z M18.2,51l-0.4-0.1
					l0,0l-0.5-0.2c0,0,0.4,0,0.5,0c0,0,0,0,0,0c-0.2-0.2-0.4-0.4-0.4-0.4s0.2,0.1,0.5,0.2c0,0,0,0,0,0c-0.1-0.2-0.3-0.5-0.3-0.5
					s0.4,0.3,0.5,0.3c0,0,0,0,0,0c-0.1-0.3-0.2-0.6-0.2-0.6l0.4,0.4c0,0,0,0,0,0c0-0.2-0.1-0.6-0.1-0.6l0.3,0.5c0,0,0,0,0,0
					c0-0.1,0-0.5,0-0.5s0.1,0.3,0.2,0.5c0,0,0,0,0.1,0c0,0,0.2-0.4,0.2-0.4l0,0.5l-0.1,0l-0.1,0.7c0.6-0.2,1.5-1.3,2.1-1.3
					c0.7,0,1,0.9,2.4,0.4c0.3,0.5,0.5,1,0.6,1.6c0.5,0.5,1.3,0.3,1.3-0.2c0-0.7-0.8-0.8-0.8-1.6c0-0.3,0.2-0.8,0.9-0.8
					c0.3,0,0.8,0.1,1.1,0.1c0.3,0,0.4-0.2,0.4-0.3c0-0.1,0.1,0,0.1,0c0,0.1,0,0.2,0,0.3c0,0.5-0.7,0.5-0.8,0.5c0,0-0.1,0,0,0
					c0.1,0.1,0.1,0.4,0,0.5c0,0,0,0,0,0c-0.1-0.3-0.5-0.7-0.8-0.7c-0.1,0-0.4,0.1-0.4,0.4c0,0.4,0.8,0.8,0.8,1.7
					c0,0.9-0.9,1.1-1.8,0.9c0,0.8,1.3,1.4,1.3,0.8c0,0,0,0,0,0c0.2,0.3,0.1,0.5-0.1,0.6c0.2,0.1,0.3,0.5,0.3,0.8
					c0.1,0.4,0.5,0.2,0.5,0.2c0,0,0,0,0,0c-0.2,0.4-0.6,0.3-0.6,0.3c-0.2,0.2,0,0.3,0.2,0.4c0,0,0,0,0,0c-0.1,0-0.5,0.2-0.6-0.1
					c-0.1,0.3-0.4,0.3-0.4,0.3c-0.2,0-0.3,0.2-0.2,0.4c0,0,0,0,0,0c-0.4-0.3-0.2-0.6,0-0.6c0,0-0.3-0.1-0.4,0.2c0,0,0,0,0,0
					c-0.2-0.5,0.2-0.6,0.5-0.5c0-0.1-0.2-0.3-0.5-0.2c0,0,0,0,0,0c0.1-0.1,0.2-0.3,0.5-0.1c0.2,0.1,0.5,0,0.5-0.1
					c-0.6-1.1-1.7-0.2-1.9-1.1c0,0,0,0,0,0c-0.1,0.2-0.5,0.2-0.6-0.2c0,0,0,0,0,0c0.1,0.1,0.2,0.1,0.4-0.2c0.1-0.2,0.1-0.4,0.1-0.6
					c0-0.7-0.7-1.8-1.8-1.8c-0.7,0-1.4,0.3-2,0.7l0.5,0.1c0,0.5-0.5,0.8-1,0.7l0.1-0.6c-0.1,0-0.3,0.1-0.4,0.2c0,0,0,0,0,0
					c-0.1-0.3,0.2-0.5,0.3-0.5c0,0,0,0,0,0c-0.2,0-0.4,0.2-0.4,0.2c0,0,0,0,0,0C18.1,51.2,18.1,51.1,18.2,51z M19.7,54.9
					c-0.2,0.2-0.4,0-0.6,0c-0.2,0-0.3,0.2-0.3,0.3c0,0,0,0,0,0c-0.3-0.4,0-0.6,0.2-0.6c0,0-0.3-0.2-0.5,0c0,0,0,0,0,0
					c0-0.5,0.4-0.5,0.6-0.3c0-0.2-0.1-0.3-0.3-0.3c0,0,0,0,0,0c0.1-0.1,0.2-0.1,0.2-0.1c0.2,0,0.3,0.3,0.5,0.3
					c0.2,0,0.6-0.3,0.6-0.4c0,0-0.2-0.7-0.2-1c0,0,0,0,0,0c-0.1,0.1-0.4,0.1-0.4-0.3c0,0,0,0,0,0c0.1,0.2,0.4,0,0.5-0.2
					c0.1-0.1,0.8-1,1.6-1c0.2,0,0.4,0.1,0.6,0.2c-0.3,0.3,0,0.7,0.2,0.7c0,0,0,0,0,0c-1.1,0.4-1.6,0.6-1.6,1.5
					c0,0.5,0.2,0.8,0.5,0.7c0,0,0,0,0,0c-0.1,0.1-0.2,0.2-0.3,0.2c-0.2,0-0.3-0.1-0.4-0.1c-0.1,0-0.5,0.2-0.5,0.5
					c0,0.1,0,0.2,0.2,0.3c0,0,0,0,0,0C20.1,55.2,19.8,55.2,19.7,54.9z M22.6,45.9c-0.4,0-0.6,0.1-0.6,0.2
					C22.2,46.2,22.4,46.2,22.6,45.9z M21.3,46.7c0.2-0.1,0.5,0,0.5,0c0,0,0,0.1,0,0.1c-0.5,0.1-0.5,0.3-0.9,0.3
					c-0.2,0-0.5-0.2-0.4-0.5c0,0,0,0,0,0C20.7,46.7,20.9,46.8,21.3,46.7z M14.7,58c0.3,0.4,0.7,0,1.1,0c0.2,0,0.5,0.1,0.5,0.5
					c0,0,0,0,0,0c0.5-0.7-0.1-1-0.4-1.1c0.1-0.1,0.5-0.3,0.8,0.1c0,0,0,0,0,0c0-0.8-0.6-0.9-1.1-0.5c-0.1-0.3,0.2-0.5,0.5-0.5
					c0,0,0,0,0,0c-0.6-0.6-1,0.2-1.1,0.3c-0.2,0.3-1-0.3-1.3-0.6c0,0,0.7-0.7,0.7-1.4c0,0,0-0.1,0-0.1s0,0,0,0
					c0.1,0,0.2,0.1,0.3,0.1c0.2,0,0.5,0,0.5-0.6c0,0,0,0,0,0c-0.1,0.1-0.2,0.2-0.2,0.2c-0.6,0-1.8-1.9-3.2-1.9
					c-0.4,0-1.1,0.3-1.4,0.6c0.2,0.1,0.2,0.3,0.2,0.5c0,0.2-0.2,0.4-0.4,0.4c0,0,0,0,0,0c0.7,0.3,2,0.8,2.3,1
					c0.4,0.3,0.3,0.9,0.1,1.7c-0.2,0.8-0.6,0.7-0.8,0.6c0,0,0,0,0,0c0.2,0.2,0.4,0.3,0.6,0.3c0.4,0,0.5-0.2,0.7-0.2
					c0.3,0,1,0.5,1,0.8c0,0.2-0.1,0.4-0.4,0.5c0,0,0,0,0,0C13.9,58.5,14.6,58.6,14.7,58z M30.2,58.5C30.2,58.5,30.2,58.5,30.2,58.5
					c-0.2-0.2-0.3-0.3-0.3-0.5c0-0.3,0.7-0.8,1-0.8c0.2,0,0.3,0.2,0.7,0.2c0.2,0,0.4-0.1,0.6-0.3c0,0,0,0,0,0
					c-0.1,0-0.6,0.1-0.8-0.6c-0.2-0.8-0.3-1.3,0.1-1.7c0.3-0.2,1.6-0.7,2.3-1c0,0,0,0,0,0c-0.2,0-0.4-0.2-0.4-0.4
					c0-0.2,0-0.4,0.2-0.5c-0.3-0.4-1-0.6-1.4-0.6c-1.4,0-2.6,1.9-3.2,1.9c-0.1,0-0.2,0-0.2-0.2c0,0,0,0,0,0c0,0.6,0.3,0.6,0.5,0.6
					c0.1,0,0.2,0,0.3-0.1c0,0,0,0,0,0s0,0.1,0,0.1c0,0.7,0.7,1.4,0.7,1.4c-0.3,0.3-1.1,0.9-1.3,0.6c-0.1-0.1-0.5-0.9-1.1-0.3
					c0,0,0,0,0,0c0.3,0,0.6,0.2,0.5,0.5c-0.5-0.4-1.1-0.3-1.1,0.5c0,0,0,0,0,0c0.3-0.4,0.8-0.1,0.8-0.1c-0.3,0-0.9,0.4-0.4,1.1
					c0,0,0,0,0,0c0-0.4,0.3-0.5,0.5-0.5c0.4,0,0.8,0.4,1.1,0C29.4,58.6,30,58.5,30.2,58.5z M18.9,47.6c0,0.1-0.2,0-0.2,0
					c0,0,0,0,0,0c0,0.1,0.2,0.3,0.4,0.3c0.1,0,0.2-0.1,0.3-0.1c0,0,0.8,0.3,1.2,0.4c-0.2,0.2-0.3,0.5-0.3,0.7
					c-0.3-0.2-1.6-0.9-1.6-0.9l-0.4,0.6c-0.1,0.1-0.4-0.2-0.3-0.2l0.3-0.4c-0.1-0.1-0.4,0-0.4,0c0,0,0,0,0,0c0-0.1,0.2-0.3,0.6-0.2
					c0-0.2-0.4-0.2-0.4-0.1c0,0,0,0,0,0c0.1-0.1,0.4-0.3,0.7-0.1l0.1-0.2l-0.3-0.3l0.2-0.2l0.2,0.3l1.5-2.1c0,0,0.3-0.1,0.5-0.2
					c0,0.1,0,0.4,0,0.5l-1.5,2.1l0.3,0.1l-0.2,0.2L19,47.3L18.9,47.6z M24.2,47.2c0,0.2,0.1,0.5,0.4,0.4c0,0,0,0,0,0
					c0,0.2-0.4,0.4-0.6,0.2c-0.1,0.3-0.1,0.6,0.2,0.8c0,0,0,0,0,0c-0.2,0.1-0.5,0.1-0.6-0.2c-0.3,0.2-0.2,0.6-0.1,0.8
					c0,0-0.8,0.5-1.4,0.1c-0.5-0.2-0.8-0.5-1.4-0.5c0.1-0.8,0.5-1,1.2-1.2c0.6-0.1,0.7-0.4,0.6-0.6c-0.2,0-0.6,0.1-0.6,0.1
					c-0.1-0.1,0-0.2,0-0.2c0,0-0.1-0.2-0.1-0.2c0.4,0,0.5-0.1,0.5-0.1c0.1-0.4-0.4-0.5-0.7-0.2c-0.2-0.1-0.1-0.3-0.1-0.3
					c0,0-0.1-0.1-0.1-0.1c0-0.1,0.5-0.4,0.6-0.4c0-0.2,0.2-0.3,0.8-0.3c0.1-0.1,0-0.7-0.1-0.8c0,0,0-0.1,0.1,0
					c0.2,0.1,0.4,0.5,0.5,0.6c0,0,0.6-0.3,0.6-0.3c0,0,0.1,0.7,0.1,0.7c0.1,0.1,0.5,0,0.7,0.1c0,0,0,0.1,0,0.1
					c-0.1,0-0.6,0.2-0.7,0.4C24.3,46.4,24.2,47,24.2,47.2z"/>
			</g>
		</g>
	</g>
</g>
</svg>
