<?xml version="1.0" encoding="utf-8"?>
<!-- Generator: Adobe Illustrator 22.1.0, SVG Export Plug-In . SVG Version: 6.00 Build 0)  -->
<svg version="1.1" id="Laag_1" xmlns="http://www.w3.org/2000/svg" xmlns:xlink="http://www.w3.org/1999/xlink" x="0px" y="0px"
	 viewBox="0 0 551 235.5" style="enable-background:new 0 0 551 235.5;" xml:space="preserve">
<style type="text/css">
	.st0{enable-background:new    ;}
	.st1{fill:#01689B;}
	.st2{fill:none;}
	.st3{fill:none;stroke:#01689B;stroke-width:2;stroke-linecap:round;stroke-miterlimit:10;}
</style>
<g class="st0">
	<path class="st1" d="M27.3,80.3c0,1.6-0.2,3.3-0.6,5.1c-0.5,2.2-1.1,3.7-1.9,4.6c-1,1.1-2.2,1.6-3.7,1.6c-1.3,0-2.5-0.4-3.4-1.2
		c-1.1-0.9-1.8-2.1-2.2-3.6c-0.3-1.1-0.4-2.5-0.4-4.3c0-0.9,0.1-2.2,0.2-4c0.1-1.8,0.2-3.1,0.2-4c0-0.2-0.1-0.4-0.2-0.7
		c-0.1-0.3-0.2-0.5-0.2-0.7c0-0.5,0.4-0.9,1.2-1.2c0.6-0.3,1.2-0.4,1.8-0.4c0.7,0,1,0.2,1,0.6c0,0.2-0.1,0.5-0.3,0.9
		c-0.2,0.4-0.3,0.7-0.3,1c0,0.8-0.1,1.9-0.3,3.5c-0.2,1.6-0.3,2.7-0.3,3.5v3.6c0,1.1,0.2,2.1,0.6,2.9c0.5,1.1,1.3,1.6,2.3,1.6
		c1.9,0,3.2-1.8,3.8-5.3c0.3-1.7,0.4-4.2,0.4-7.7c0-1.3-0.2-2.3-0.6-3.1c-0.1-0.2-0.2-0.4-0.2-0.5c0-0.3,0.1-0.7,0.4-1
		c0.3-0.3,0.6-0.5,0.9-0.5c0.4,0,0.8,0.1,1.2,0.4c0.4,0.3,0.6,0.6,0.6,0.9V80.3z"/>
	<path class="st1" d="M45.4,91.8c-0.7,0.5-1.3,0.8-1.7,0.8c-0.6,0-1.4-0.6-2.4-1.7c-0.8-0.8-1.5-1.6-2.2-2.5c-0.4-0.5-1.1-1.2-2-2.1
		l-0.1,0.1v2.5c0,0.2,0.1,0.4,0.2,0.7c0.1,0.3,0.2,0.5,0.2,0.7c0,0.3-0.1,0.5-0.4,0.7c-0.3,0.2-0.6,0.3-0.9,0.3
		c-0.5,0-0.9-0.2-1.2-0.5c-0.3-0.3-0.5-0.7-0.5-1.2v-3.8c0-0.2,0-0.6,0.1-1.1c0.1-0.5,0.1-0.8,0.1-1.1v-7.8c0-1.2-0.1-2.1-0.2-2.8
		c-0.1-0.3-0.1-0.6-0.1-0.8c0-0.4,0.2-0.7,0.7-1c0.4-0.3,0.8-0.4,1.2-0.4c0.3,0,0.6,0.1,0.9,0.3c0.3,0.2,0.5,0.5,0.5,0.7
		c0,0.1-0.1,0.3-0.2,0.8C37.1,73.3,37,74,37,74.9c0,0.3,0,2.9-0.1,7.7c0.1-0.1,1.1-1,3.1-2.9c1.7-1.5,2.6-2.3,2.9-2.3
		c1,0,1.5,0.6,1.5,1.9v0.3c-0.8,0.5-1.9,1.2-3.2,2.3c-1.7,1.3-2.5,2.1-2.5,2.6c0,0,0.5,0.6,1.6,1.8c1,1.1,1.6,1.8,1.9,2.1
		c1.2,1.2,2.2,2,3.2,2.5V91.8z"/>
	<path class="st1" d="M55.4,80.6c0,0.6-0.1,1.5-0.2,2.7C55,84.5,55,85.4,55,86c0,0.5,0,1.3,0.1,2.4c0,1.1,0.1,1.9,0.1,2.4
		c0,0.4-0.4,0.7-1.1,0.7c-0.8,0-1.3-0.4-1.5-1.1c-0.7,0.5-1.4,0.7-2.1,0.7c-0.6,0-1.2-0.1-1.9-0.4c-0.7-0.3-1.2-0.7-1.5-1.1
		c-0.6-0.8-0.8-2.1-0.8-3.9c0-0.6,0-1.7,0.1-3.2c0.1-1.4,0.1-2.4,0.1-3.2c0.6-0.4,1.1-0.6,1.5-0.6c0.9,0,1.4,0.5,1.4,1.4
		c0,0.3,0,0.8-0.1,1.4c-0.1,0.6-0.1,1.1-0.1,1.4v4.1c0,0.5,0.1,0.9,0.4,1.4c0.3,0.6,0.7,0.9,1.1,0.9c0.8,0,1.4-0.5,1.8-1.6
		c0.3-0.7,0.4-1.6,0.4-2.7v-3.5c0-0.4-0.1-1-0.3-1.6c0.5-0.4,0.9-0.7,1.4-0.7c0.5,0,0.9,0.1,1.3,0.4C55.2,79.8,55.4,80.2,55.4,80.6z
		"/>
	<path class="st1" d="M67.8,90.7c-0.3,0.4-0.6,0.7-1.1,0.7c-0.3,0-0.9-0.2-1.6-0.6v-0.3c0-0.4,0-1,0-1.9c0-0.8,0-1.4,0-1.8
		c0-4.1-0.6-6.2-1.8-6.2c-0.3,0-0.7,0.3-1.2,0.8c-1.4,1.7-2,3.6-2,6c0,0.3,0.1,0.8,0.2,1.5c0.1,0.6,0.2,1.1,0.2,1.5
		c0,0.3-0.1,0.5-0.4,0.7c-0.3,0.2-0.5,0.3-0.8,0.3c-1.2,0-1.7-0.7-1.7-2.2v-6c0-0.2,0-0.4,0.1-0.7c0-0.3,0.1-0.5,0.1-0.7
		c0-0.2,0-0.6-0.1-1c-0.1-0.4-0.1-0.8-0.1-1c0-0.3,0.2-0.6,0.5-0.9c0.4-0.3,0.7-0.4,1-0.4c0.4,0,0.9,0.2,1.3,0.7l-0.1,1.2
		c0.7-1.1,1.6-1.7,2.6-1.7c0.7,0,1.4,0.2,2.1,0.7c0.8,0.5,1.3,1,1.6,1.6c0.8,1.5,1.2,3.4,1.2,5.8V90.7z"/>
	<path class="st1" d="M75.6,80.6c0,0.5-0.8,0.9-2.4,1.1c0,0.4-0.1,1.4-0.1,2.9v1.9c0,0.4,0.1,1,0.2,1.7c0.1,0.8,0.2,1.3,0.2,1.7
		c0,0.3-0.2,0.6-0.5,0.8c-0.3,0.2-0.6,0.4-0.9,0.4c-0.5,0-0.9-0.4-1.2-1.2c-0.3-0.6-0.4-1.3-0.4-1.8v-6.1c-0.9-0.1-1.4-0.2-1.5-0.3
		c-0.5-0.2-0.8-0.4-0.8-0.7c0-0.1,0-0.2,0.1-0.3c0.5-0.7,1.1-1.1,1.7-1.1c0,0,0.1,0,0.2,0c0.1,0,0.1,0,0.2,0c0.4,0,0.6-0.5,0.6-1.4
		v-2.1c-0.1-0.2-0.1-0.4-0.1-0.5c0-0.3,0.1-0.5,0.4-0.7c0.3-0.2,0.6-0.3,0.8-0.3c0.4,0,0.8,0.2,1.1,0.6c0.4,0.4,0.5,0.8,0.5,1.2
		c0,0.5-0.1,0.9-0.2,1.4c-0.1,0.5-0.2,0.9-0.2,1.4v0.1C74.9,79.3,75.6,79.8,75.6,80.6z"/>
	<path class="st1" d="M91.1,91.4c-0.4,0.4-0.8,0.5-1.4,0.5c-0.4,0-0.8-0.3-1.2-0.8c0-1.7,0-3,0-3.9c0-4.3-0.6-6.4-1.8-6.4
		c-1.3,0-1.9,1.7-1.9,5.2c0,0.2,0,0.5,0,0.8c0,0.4,0,0.6,0,0.8c0,0.3,0,0.7,0.1,1.3c0.1,0.6,0.1,1,0.1,1.3c0,0.3-0.1,0.5-0.4,0.7
		s-0.6,0.3-0.8,0.3c-0.5,0-0.9-0.2-1.2-0.6c-0.3-0.4-0.5-0.8-0.5-1.3l0.1-16.7c0-0.1,0-0.1,0-0.2s0-0.2,0-0.2c0-0.7,0.4-1,1.2-1
		c0.4,0,0.8,0.2,1.3,0.5c0.5,0.3,0.7,0.7,0.7,1c0,0.4-0.1,1.1-0.3,1.9c-0.2,0.8-0.3,1.5-0.3,1.9c0,0.5,0,1.4,0.1,2.6
		c0.4-0.3,0.8-0.4,1.1-0.4c0.8,0,1.6,0.2,2.5,0.5c1.1,0.5,1.9,1.3,2.4,2.3c0.3,0.8,0.5,1.9,0.5,3.3V91.4z"/>
	<path class="st1" d="M97.1,79.8c0,0.3-0.1,0.8-0.2,1.5c-0.2,0.6-0.2,1.1-0.2,1.5v5.9c0,0.4,0.1,0.9,0.3,1.7c-0.3,0.4-0.6,0.7-1,0.7
		c-1.2,0-1.9-0.6-2-1.8c-0.2-2.3-0.3-3.9-0.3-5.1c0-1.9,0.1-3.5,0.2-4.8c0-0.1,0-0.2,0-0.3c0-0.3,0.3-0.5,0.8-0.5
		c0.5,0,1,0.1,1.4,0.3C96.8,79.1,97.1,79.4,97.1,79.8z M97.3,75.8c0,0.4-0.1,0.8-0.4,1c-0.3,0.3-0.6,0.4-1.1,0.4
		c-0.5,0-1-0.2-1.4-0.5c-0.4-0.3-0.6-0.8-0.6-1.3c0-0.4,0.1-0.8,0.4-1c0.3-0.3,0.7-0.4,1.1-0.4c0.5,0,1,0.2,1.4,0.5
		C97.1,74.8,97.3,75.2,97.3,75.8z"/>
	<path class="st1" d="M107.5,88.4c0,1-0.7,1.7-2,2.3c-1,0.4-2.1,0.6-3.2,0.6c-3,0-4.4-1.7-4.4-5.1c0-1.4,0.3-2.9,1-4.6
		c0.8-2.1,1.8-3.1,3-3.1c1.1,0,2.2,0.5,3.4,1.4c1.2,0.9,1.8,1.9,1.8,2.9c0,1.3-0.6,2.3-1.7,3c-1,0.7-2.2,1-3.6,1
		c-0.3,0-0.7-0.2-1.3-0.5c0.1,1.8,0.6,2.7,1.6,2.7c0.8,0,1.7-0.2,2.5-0.7c0.8-0.5,1.3-0.7,1.6-0.7C107.1,87.7,107.5,87.9,107.5,88.4
		z M104.4,82.9c0-0.5-0.1-0.9-0.4-1.4c-0.3-0.4-0.6-0.6-1.1-0.6c-0.6,0-1.1,0.3-1.5,0.8c-0.3,0.5-0.4,1-0.4,1.7
		c0,0.4,0.1,0.7,0.4,0.9c0.3,0.2,0.6,0.3,1,0.3C103.7,84.7,104.4,84.1,104.4,82.9z"/>
	<path class="st1" d="M116.6,81c0,0.1,0,0.3-0.1,0.6c-0.4,0.6-0.8,0.9-1.3,0.9c-0.4,0-0.7-0.2-1-0.6c0-0.9-0.3-1.3-0.9-1.3
		c-0.3,0-0.8,0.9-1.3,2.7c-0.2,0.8-0.3,1.9-0.3,3.4c0,1.4,0.1,2.2,0.2,2.5c0.1,0.4,0.2,0.6,0.2,0.8c0,0.3-0.1,0.6-0.4,0.8
		c-0.3,0.2-0.6,0.3-1,0.3c-1,0-1.5-0.5-1.5-1.4c0-0.1,0-0.2,0.1-0.4c0-0.2,0.1-0.3,0.1-0.4c0-1,0-2.4-0.1-4.4
		c-0.1-1.9-0.1-3.4-0.1-4.3c0-0.9,0.5-1.3,1.6-1.3c0.6,0,1,0.2,1.3,0.5c0.5-0.6,1.1-0.9,1.8-0.9c0.5,0,0.9,0.1,1.3,0.4
		c0.3,0.2,0.6,0.5,1,1C116.4,80.3,116.6,80.7,116.6,81z"/>
	<path class="st1" d="M133.6,86c0,2.5-0.1,4.2-0.2,5.3c-0.1,0.6-0.5,0.9-1.2,0.9c-1.1,0-1.6-0.5-1.4-1.6c-1,0.5-2,0.7-3,0.7
		c-1,0-2-0.3-2.9-0.8c-1.1-0.6-1.6-1.4-1.6-2.3c0-0.9,0.6-1.8,1.8-2.5c1.1-0.7,2.2-1.1,3.1-1.1h2.5v-0.7c0-2-0.6-3-1.8-3
		c-1.5,0-2.3,0.7-2.3,2.1c0,0.5-0.3,0.7-0.8,0.7c-0.3,0-0.7-0.1-1-0.4c-0.4-0.3-0.5-0.6-0.5-0.9c0-1.1,0.4-2,1.2-2.7
		c0.8-0.7,1.7-1,2.8-1C131.8,78.6,133.6,81.1,133.6,86z M130.7,87c0-0.4-0.3-0.6-0.9-0.6c-2.4,0-3.6,0.6-3.6,1.7
		c0,0.6,0.5,0.9,1.6,0.9c0.7,0,1.3-0.2,1.8-0.5C130.4,88.1,130.7,87.6,130.7,87z"/>
	<path class="st1" d="M139.2,90.1c0,0.3-0.1,0.6-0.4,0.9c-0.3,0.2-0.6,0.4-1,0.4c-1.2,0-1.8-1.6-1.8-4.8c0-1.4,0-3.6,0-6.5
		c0-2.9,0-5.1,0-6.5c0-0.2,0-0.6-0.1-1c-0.1-0.4-0.1-0.8-0.1-1c0.6-0.4,1.1-0.6,1.5-0.6c0.4,0,0.8,0.1,1.2,0.4
		c0.4,0.3,0.6,0.6,0.6,1.1c0,0.2,0,0.5-0.1,0.8c-0.1,0.5-0.2,0.7-0.2,0.8c-0.3,1.2-0.4,2.9-0.4,5.1c0,3.5,0,5.3,0,5.4
		c0.1,2.4,0.3,4.1,0.6,5.1C139.1,89.8,139.2,90,139.2,90.1z"/>
	<path class="st1" d="M155.2,84.4c0,1.7-0.3,3.2-0.9,4.4c-0.8,1.6-1.9,2.3-3.5,2.3c-0.5,0-1.3-0.2-2.4-0.5c0,0.1,0,0.3,0,0.4
		c0,0.6-0.4,1-1.1,1c-0.5,0-0.9-0.2-1.3-0.6c-0.2-0.2-0.3-0.8-0.4-1.8c-0.1-0.8-0.1-1.5-0.1-2v-0.1l0.4-16.3
		c0.3-0.5,0.7-0.7,1.1-0.6c0.1,0,0.2-0.1,0.3-0.1c0.3,0,0.7,0.2,1,0.6c0.3,0.4,0.4,0.8,0.4,1.2c0,0.8-0.1,1.9-0.2,3.3
		c-0.2,1.6-0.3,2.7-0.3,3.3c0.6-0.7,1.3-1,2.2-1c1.1,0,2,0.4,2.9,1.1c0.8,0.8,1.4,1.7,1.6,2.8C155.2,82.4,155.2,83.3,155.2,84.4z
		 M152.6,84.2c0-2.6-0.5-3.9-1.6-3.9c-0.9,0-1.6,0.7-2.1,2c-0.4,1-0.5,2.1-0.5,3.2c0,2.4,0.7,3.6,2.2,3.6
		C151.9,89.1,152.6,87.4,152.6,84.2z"/>
	<path class="st1" d="M166.7,88.4c0,1-0.7,1.7-2,2.3c-1,0.4-2.1,0.6-3.2,0.6c-3,0-4.4-1.7-4.4-5.1c0-1.4,0.3-2.9,1-4.6
		c0.8-2.1,1.8-3.1,3-3.1c1.1,0,2.2,0.5,3.4,1.4c1.2,0.9,1.8,1.9,1.8,2.9c0,1.3-0.6,2.3-1.7,3c-1,0.7-2.2,1-3.6,1
		c-0.3,0-0.7-0.2-1.3-0.5c0.1,1.8,0.6,2.7,1.6,2.7c0.8,0,1.7-0.2,2.5-0.7c0.8-0.5,1.3-0.7,1.6-0.7C166.3,87.7,166.7,87.9,166.7,88.4
		z M163.5,82.9c0-0.5-0.1-0.9-0.4-1.4c-0.3-0.4-0.6-0.6-1.1-0.6c-0.6,0-1.1,0.3-1.5,0.8c-0.3,0.5-0.4,1-0.4,1.7
		c0,0.4,0.1,0.7,0.4,0.9c0.3,0.2,0.6,0.3,1,0.3C162.8,84.7,163.5,84.1,163.5,82.9z"/>
	<path class="st1" d="M178.3,82.3c0,0.5-0.2,1.3-0.4,2.5c-0.2,1.1-0.3,1.9-0.3,2.5c0,0.6,0,1.4,0.1,2.6s0.1,2,0.1,2.6
		c0,1.2-0.1,2.1-0.3,2.7c-0.3,0.7-0.8,1.3-1.5,1.8c-0.8,0.5-1.5,0.7-2.3,0.7c-0.8,0-1.9-0.2-3.1-0.7c-1.5-0.5-2.3-1.1-2.3-1.8
		c0-0.8,0.4-1.3,1.2-1.3c0.4,0,0.6,0.1,0.8,0.3c0.2,0.4,0.4,0.6,0.5,0.7c0.1,0.1,0.4,0.2,0.9,0.3c0.5,0.1,0.9,0.2,1.1,0.2
		c1.7,0,2.6-1.1,2.6-3.3c0-0.6,0-1.2-0.1-1.6c-0.8,0.7-1.8,1.1-3,1.1c-0.5,0-1-0.1-1.6-0.4c-0.6-0.3-1-0.6-1.4-1
		c-0.6-0.7-0.9-1.7-0.9-3.1c0-1.6,0.4-3.4,1.1-5.4c0.9-2.4,2-3.6,3.4-3.6c0.8,0,1.6,0.4,2.3,1.1c0.5,0.7,1.1,1.4,1.6,2.1
		c0.2,0.2,0.4,0.4,0.7,0.5C177.9,82.1,178.2,82.2,178.3,82.3z M175.4,84.1c0-0.3-0.1-0.5-0.4-0.7c-0.1-1.8-0.7-2.7-1.8-2.7
		c-0.6,0-1.2,0.9-1.6,2.7c-0.3,1.4-0.5,2.6-0.5,3.6c0,1.9,0.5,2.8,1.5,2.8c0.9,0,1.7-0.8,2.2-2.3C175.1,86.3,175.4,85.2,175.4,84.1z
		"/>
	<path class="st1" d="M183.8,79.8c0,0.3-0.1,0.8-0.2,1.5c-0.2,0.6-0.2,1.1-0.2,1.5v5.9c0,0.4,0.1,0.9,0.3,1.7
		c-0.3,0.4-0.6,0.7-1,0.7c-1.2,0-1.9-0.6-2-1.8c-0.2-2.3-0.3-3.9-0.3-5.1c0-1.9,0.1-3.5,0.2-4.8c0-0.1,0-0.2,0-0.3
		c0-0.3,0.3-0.5,0.8-0.5c0.5,0,1,0.1,1.4,0.3C183.5,79.1,183.8,79.4,183.8,79.8z M184.1,75.8c0,0.4-0.1,0.8-0.4,1
		c-0.3,0.3-0.6,0.4-1.1,0.4c-0.5,0-1-0.2-1.4-0.5c-0.4-0.3-0.6-0.8-0.6-1.3c0-0.4,0.1-0.8,0.4-1c0.3-0.3,0.7-0.4,1.1-0.4
		c0.5,0,1,0.2,1.4,0.5C183.9,74.8,184.1,75.2,184.1,75.8z"/>
	<path class="st1" d="M195.8,90.7c-0.3,0.4-0.6,0.7-1.1,0.7c-0.3,0-0.9-0.2-1.6-0.6v-0.3c0-0.4,0-1,0-1.9c0-0.8,0-1.4,0-1.8
		c0-4.1-0.6-6.2-1.8-6.2c-0.3,0-0.7,0.3-1.2,0.8c-1.4,1.7-2,3.6-2,6c0,0.3,0.1,0.8,0.2,1.5c0.1,0.6,0.2,1.1,0.2,1.5
		c0,0.3-0.1,0.5-0.4,0.7c-0.3,0.2-0.5,0.3-0.8,0.3c-1.2,0-1.7-0.7-1.7-2.2v-6c0-0.2,0-0.4,0.1-0.7c0-0.3,0.1-0.5,0.1-0.7
		c0-0.2,0-0.6-0.1-1c-0.1-0.4-0.1-0.8-0.1-1c0-0.3,0.2-0.6,0.5-0.9c0.4-0.3,0.7-0.4,1-0.4c0.4,0,0.9,0.2,1.3,0.7l-0.1,1.2
		c0.7-1.1,1.6-1.7,2.6-1.7c0.7,0,1.4,0.2,2.1,0.7c0.8,0.5,1.3,1,1.6,1.6c0.8,1.5,1.2,3.4,1.2,5.8V90.7z"/>
	<path class="st1" d="M208.3,90.7c-0.3,0.4-0.6,0.7-1.1,0.7c-0.3,0-0.9-0.2-1.6-0.6v-0.3c0-0.4,0-1,0-1.9c0-0.8,0-1.4,0-1.8
		c0-4.1-0.6-6.2-1.8-6.2c-0.3,0-0.7,0.3-1.2,0.8c-1.4,1.7-2,3.6-2,6c0,0.3,0.1,0.8,0.2,1.5c0.1,0.6,0.2,1.1,0.2,1.5
		c0,0.3-0.1,0.5-0.4,0.7c-0.3,0.2-0.5,0.3-0.8,0.3c-1.2,0-1.7-0.7-1.7-2.2v-6c0-0.2,0-0.4,0.1-0.7c0-0.3,0.1-0.5,0.1-0.7
		c0-0.2,0-0.6-0.1-1c-0.1-0.4-0.1-0.8-0.1-1c0-0.3,0.2-0.6,0.5-0.9c0.4-0.3,0.7-0.4,1-0.4c0.4,0,0.9,0.2,1.3,0.7l-0.1,1.2
		c0.7-1.1,1.6-1.7,2.6-1.7c0.7,0,1.4,0.2,2.1,0.7c0.8,0.5,1.3,1,1.6,1.6c0.8,1.5,1.2,3.4,1.2,5.8V90.7z"/>
	<path class="st1" d="M219.8,88.4c0,1-0.7,1.7-2,2.3c-1,0.4-2.1,0.6-3.2,0.6c-3,0-4.4-1.7-4.4-5.1c0-1.4,0.3-2.9,1-4.6
		c0.8-2.1,1.8-3.1,3-3.1c1.1,0,2.2,0.5,3.4,1.4c1.2,0.9,1.8,1.9,1.8,2.9c0,1.3-0.6,2.3-1.7,3c-1,0.7-2.2,1-3.6,1
		c-0.3,0-0.7-0.2-1.3-0.5c0.1,1.8,0.6,2.7,1.6,2.7c0.8,0,1.7-0.2,2.5-0.7c0.8-0.5,1.3-0.7,1.6-0.7C219.3,87.7,219.8,87.9,219.8,88.4
		z M216.6,82.9c0-0.5-0.1-0.9-0.4-1.4c-0.3-0.4-0.6-0.6-1.1-0.6c-0.6,0-1.1,0.3-1.5,0.8c-0.3,0.5-0.4,1-0.4,1.7
		c0,0.4,0.1,0.7,0.4,0.9c0.3,0.2,0.6,0.3,1,0.3C215.9,84.7,216.6,84.1,216.6,82.9z"/>
	<path class="st1" d="M231.7,90.7c-0.3,0.4-0.6,0.7-1.1,0.7c-0.3,0-0.9-0.2-1.6-0.6v-0.3c0-0.4,0-1,0-1.9c0-0.8,0-1.4,0-1.8
		c0-4.1-0.6-6.2-1.8-6.2c-0.3,0-0.7,0.3-1.2,0.8c-1.4,1.7-2,3.6-2,6c0,0.3,0.1,0.8,0.2,1.5c0.1,0.6,0.2,1.1,0.2,1.5
		c0,0.3-0.1,0.5-0.4,0.7c-0.3,0.2-0.5,0.3-0.8,0.3c-1.2,0-1.7-0.7-1.7-2.2v-6c0-0.2,0-0.4,0.1-0.7c0-0.3,0.1-0.5,0.1-0.7
		c0-0.2,0-0.6-0.1-1c-0.1-0.4-0.1-0.8-0.1-1c0-0.3,0.2-0.6,0.5-0.9c0.4-0.3,0.7-0.4,1-0.4c0.4,0,0.9,0.2,1.3,0.7l-0.1,1.2
		c0.7-1.1,1.6-1.7,2.6-1.7c0.7,0,1.4,0.2,2.1,0.7c0.8,0.5,1.3,1,1.6,1.6c0.8,1.5,1.2,3.4,1.2,5.8V90.7z"/>
</g>
<g class="st0">
	<path class="st1" d="M65.3,124c-0.6,0.4-1.1,0.6-1.5,0.6c-0.2,0-0.6-0.1-1.1-0.4c0-0.3,0-0.8,0-1.6c0-0.7,0-1.2,0-1.6
		c0-5.1-0.4-7.7-1.3-7.7c-0.6,0-1.1,0.8-1.5,2.3c-0.3,1.1-0.4,2.2-0.4,3.1v2.7c0,0.1,0,0.3,0.1,0.6c0.1,0.3,0.1,0.5,0.1,0.6
		c0,0.3-0.2,0.6-0.5,0.8c-0.3,0.2-0.6,0.4-1,0.4c-0.3,0-0.7-0.2-1-0.5c-0.3-0.3-0.5-0.6-0.5-1V117c0-2.2-0.2-3.3-0.7-3.3
		c-0.1,0-0.2,0.2-0.5,0.5c-1.4,1.8-2.1,3.8-2.1,5.9c0,0.3,0,0.8,0.1,1.3c0.1,0.6,0.1,1,0.1,1.3c0,0.4-0.1,0.7-0.4,1
		c-0.2,0.3-0.6,0.4-0.9,0.4c-0.4,0-0.8-0.2-1.1-0.5c-0.1-0.1-0.2-0.6-0.3-1.4c-0.1-0.7-0.2-1.2-0.2-1.5v-6.3c0-0.5,0.1-1.1,0.3-1.8
		c0.3-0.9,0.6-1.4,0.9-1.4c0.4,0,0.7,0.1,1,0.4c0.3,0.3,0.4,0.6,0.4,1c0.6-0.9,1.3-1.4,2.2-1.4c1.1,0,2,0.7,2.7,2.2
		c0.4-0.9,0.7-1.5,1-1.8c0.5-0.6,1.1-0.8,1.8-0.8c0.7,0,1.4,0.4,2.2,1.1c1.3,1.3,1.9,3.5,1.9,6.6V124z"/>
	<path class="st1" d="M76.9,121.5c0,1-0.7,1.7-2,2.3c-1,0.4-2.1,0.6-3.2,0.6c-3,0-4.4-1.7-4.4-5.1c0-1.4,0.3-2.9,1-4.6
		c0.8-2.1,1.8-3.1,3-3.1c1.1,0,2.2,0.5,3.4,1.4c1.2,0.9,1.8,1.9,1.8,2.9c0,1.3-0.6,2.3-1.7,3c-1,0.7-2.2,1-3.6,1
		c-0.3,0-0.7-0.2-1.3-0.5c0.1,1.8,0.6,2.7,1.6,2.7c0.8,0,1.7-0.2,2.5-0.7c0.8-0.5,1.3-0.7,1.6-0.7C76.5,120.8,76.9,121,76.9,121.5z
		 M73.8,116c0-0.5-0.1-0.9-0.4-1.4c-0.3-0.4-0.6-0.6-1.1-0.6c-0.6,0-1.1,0.3-1.5,0.8c-0.3,0.5-0.4,1-0.4,1.7c0,0.4,0.1,0.7,0.4,0.9
		c0.3,0.2,0.6,0.3,1,0.3C73.1,117.8,73.8,117.2,73.8,116z"/>
	<path class="st1" d="M84.7,113.7c0,0.5-0.8,0.9-2.4,1.1c0,0.4-0.1,1.4-0.1,2.9v1.9c0,0.4,0.1,1,0.2,1.7c0.1,0.8,0.2,1.3,0.2,1.7
		c0,0.3-0.2,0.6-0.5,0.8c-0.3,0.2-0.6,0.4-0.9,0.4c-0.5,0-0.9-0.4-1.2-1.2c-0.3-0.6-0.4-1.3-0.4-1.8V115c-0.9-0.1-1.4-0.2-1.5-0.3
		c-0.5-0.2-0.8-0.4-0.8-0.7c0-0.1,0-0.2,0.1-0.3c0.5-0.7,1.1-1.1,1.7-1.1c0,0,0.1,0,0.2,0c0.1,0,0.1,0,0.2,0c0.4,0,0.6-0.5,0.6-1.4
		v-2.1c-0.1-0.2-0.1-0.4-0.1-0.5c0-0.3,0.1-0.5,0.4-0.7c0.3-0.2,0.6-0.3,0.8-0.3c0.4,0,0.8,0.2,1.1,0.6c0.4,0.4,0.5,0.8,0.5,1.2
		c0,0.5-0.1,0.9-0.2,1.4c-0.1,0.5-0.2,0.9-0.2,1.4v0.1C83.9,112.5,84.7,112.9,84.7,113.7z"/>
	<path class="st1" d="M100.2,124.5c-0.4,0.4-0.8,0.5-1.4,0.5c-0.4,0-0.8-0.3-1.2-0.8c0-1.7,0-3,0-3.9c0-4.3-0.6-6.4-1.8-6.4
		c-1.3,0-1.9,1.7-1.9,5.2c0,0.2,0,0.5,0,0.8c0,0.4,0,0.6,0,0.8c0,0.3,0,0.7,0.1,1.3c0.1,0.6,0.1,1,0.1,1.3c0,0.3-0.1,0.5-0.4,0.7
		c-0.3,0.2-0.6,0.3-0.8,0.3c-0.5,0-0.9-0.2-1.2-0.6c-0.3-0.4-0.5-0.8-0.5-1.3l0.1-16.7c0-0.1,0-0.1,0-0.2c0-0.1,0-0.2,0-0.2
		c0-0.7,0.4-1,1.2-1c0.4,0,0.8,0.2,1.3,0.5c0.5,0.3,0.7,0.7,0.7,1c0,0.4-0.1,1.1-0.3,1.9c-0.2,0.8-0.3,1.5-0.3,1.9
		c0,0.5,0,1.4,0.1,2.6c0.4-0.3,0.8-0.4,1.1-0.4c0.8,0,1.6,0.2,2.5,0.5c1.1,0.5,1.9,1.3,2.4,2.3c0.3,0.8,0.5,1.9,0.5,3.3V124.5z"/>
	<path class="st1" d="M111.1,121.5c0,1-0.7,1.7-2,2.3c-1,0.4-2.1,0.6-3.2,0.6c-3,0-4.4-1.7-4.4-5.1c0-1.4,0.3-2.9,1-4.6
		c0.8-2.1,1.8-3.1,3-3.1c1.1,0,2.2,0.5,3.4,1.4c1.2,0.9,1.8,1.9,1.8,2.9c0,1.3-0.6,2.3-1.7,3c-1,0.7-2.2,1-3.6,1
		c-0.3,0-0.7-0.2-1.3-0.5c0.1,1.8,0.6,2.7,1.6,2.7c0.8,0,1.7-0.2,2.5-0.7c0.8-0.5,1.3-0.7,1.6-0.7
		C110.7,120.8,111.1,121,111.1,121.5z M108,116c0-0.5-0.1-0.9-0.4-1.4c-0.3-0.4-0.6-0.6-1.1-0.6c-0.6,0-1.1,0.3-1.5,0.8
		c-0.3,0.5-0.4,1-0.4,1.7c0,0.4,0.1,0.7,0.4,0.9c0.3,0.2,0.6,0.3,1,0.3C107.3,117.8,108,117.2,108,116z"/>
	<path class="st1" d="M118.9,113.7c0,0.5-0.8,0.9-2.4,1.1c0,0.4-0.1,1.4-0.1,2.9v1.9c0,0.4,0.1,1,0.2,1.7c0.1,0.8,0.2,1.3,0.2,1.7
		c0,0.3-0.2,0.6-0.5,0.8c-0.3,0.2-0.6,0.4-0.9,0.4c-0.5,0-0.9-0.4-1.2-1.2c-0.3-0.6-0.4-1.3-0.4-1.8V115c-0.9-0.1-1.4-0.2-1.5-0.3
		c-0.5-0.2-0.8-0.4-0.8-0.7c0-0.1,0-0.2,0.1-0.3c0.5-0.7,1.1-1.1,1.7-1.1c0,0,0.1,0,0.2,0c0.1,0,0.1,0,0.2,0c0.4,0,0.6-0.5,0.6-1.4
		v-2.1c-0.1-0.2-0.1-0.4-0.1-0.5c0-0.3,0.1-0.5,0.4-0.7c0.3-0.2,0.6-0.3,0.8-0.3c0.4,0,0.8,0.2,1.1,0.6c0.4,0.4,0.5,0.8,0.5,1.2
		c0,0.5-0.1,0.9-0.2,1.4c-0.1,0.5-0.2,0.9-0.2,1.4v0.1C118.2,112.5,118.9,112.9,118.9,113.7z"/>
	<path class="st1" d="M134.7,113.3c0,0.4-0.1,0.8-0.2,1c-0.1,0.2-0.3,0.4-0.6,0.7c-1.1,1.1-2.3,2.3-3.4,3.4
		c-1.6,1.7-2.5,2.9-2.7,3.6c0.2,0,0.3,0,0.5,0c0.4,0,1.1-0.1,2-0.2s1.5-0.2,2-0.2c1.2,0,2.1,0.5,2.5,1.5l-0.5,0.6h-0.8
		c-0.7,0-1.7,0.1-3,0.3c-1.3,0.2-2.3,0.3-2.9,0.3c-0.6,0-1.2-0.2-1.7-0.5c-0.6-0.3-0.9-0.8-0.9-1.4c0-0.7,0.4-1.7,1.3-2.8
		c0.5-0.7,1.5-1.7,2.7-3.1c1.2-1.3,2-2.1,2.3-2.6l-0.1,0c-1,0-1.9,0.3-2.9,0.9c-1,0.6-1.5,0.9-1.5,0.9c-0.4,0-0.7-0.1-0.9-0.4
		c-0.3-0.3-0.4-0.6-0.4-1c0-0.7,1-1.3,3-1.9c1.7-0.5,3-0.7,3.9-0.7C133.9,111.8,134.7,112.3,134.7,113.3z"/>
	<path class="st1" d="M146,118.4c0,1.7-0.4,3.2-1.3,4.4c-1,1.4-2.3,2.1-4,2.1c-1.7,0-3-0.6-3.8-1.7c-0.8-1-1.2-2.4-1.2-4.2
		c0-1.7,0.4-3.4,1.3-4.9c1-1.8,2.3-2.7,3.9-2.7c0.5,0,1.1,0.2,1.9,0.7C145,113.3,146,115.4,146,118.4z M143.5,118.3
		c0-2.9-0.7-4.4-2.1-4.4c-1,0-1.8,0.6-2.3,1.9c-0.4,0.9-0.6,2-0.6,3.2c0,2.6,0.8,3.8,2.3,3.8c1,0,1.7-0.5,2.2-1.6
		C143.3,120.4,143.5,119.4,143.5,118.3z"/>
	<path class="st1" d="M157.2,121.5c0,1-0.7,1.7-2,2.3c-1,0.4-2.1,0.6-3.2,0.6c-3,0-4.4-1.7-4.4-5.1c0-1.4,0.3-2.9,1-4.6
		c0.8-2.1,1.8-3.1,3-3.1c1.1,0,2.2,0.5,3.4,1.4c1.2,0.9,1.8,1.9,1.8,2.9c0,1.3-0.6,2.3-1.7,3c-1,0.7-2.2,1-3.6,1
		c-0.3,0-0.7-0.2-1.3-0.5c0.1,1.8,0.6,2.7,1.6,2.7c0.8,0,1.7-0.2,2.5-0.7c0.8-0.5,1.3-0.7,1.6-0.7
		C156.8,120.8,157.2,121,157.2,121.5z M154,116c0-0.5-0.1-0.9-0.4-1.4c-0.3-0.4-0.6-0.6-1.1-0.6c-0.6,0-1.1,0.3-1.5,0.8
		c-0.3,0.5-0.4,1-0.4,1.7c0,0.4,0.1,0.7,0.4,0.9c0.3,0.2,0.6,0.3,1,0.3C153.3,117.8,154,117.2,154,116z"/>
	<path class="st1" d="M169.9,124.9c-0.7,0.5-1.3,0.8-1.7,0.8c-0.6,0-1.4-0.6-2.4-1.7c-0.8-0.8-1.5-1.6-2.2-2.5
		c-0.4-0.5-1.1-1.2-2-2.1l-0.1,0.1v2.5c0,0.2,0.1,0.4,0.2,0.7c0.1,0.3,0.2,0.5,0.2,0.7c0,0.3-0.1,0.5-0.4,0.7
		c-0.3,0.2-0.6,0.3-0.9,0.3c-0.5,0-0.9-0.2-1.2-0.5s-0.5-0.7-0.5-1.2v-3.8c0-0.2,0-0.6,0.1-1.1c0.1-0.5,0.1-0.8,0.1-1.1V109
		c0-1.2-0.1-2.1-0.2-2.8c-0.1-0.3-0.1-0.6-0.1-0.8c0-0.4,0.2-0.7,0.7-1c0.4-0.3,0.8-0.4,1.2-0.4c0.3,0,0.6,0.1,0.9,0.3
		c0.3,0.2,0.5,0.5,0.5,0.7c0,0.1-0.1,0.3-0.2,0.8s-0.2,1.2-0.2,2.1c0,0.3,0,2.9-0.1,7.7c0.1-0.1,1.1-1,3.1-2.9
		c1.7-1.5,2.6-2.3,2.9-2.3c1,0,1.5,0.6,1.5,1.9v0.3c-0.8,0.5-1.9,1.2-3.2,2.3c-1.7,1.3-2.5,2.1-2.5,2.6c0,0,0.5,0.6,1.6,1.8
		c1,1.1,1.6,1.8,1.9,2.1c1.2,1.2,2.2,2,3.2,2.5V124.9z"/>
	<path class="st1" d="M178.6,121.5c0,1-0.7,1.7-2,2.3c-1,0.4-2.1,0.6-3.2,0.6c-3,0-4.4-1.7-4.4-5.1c0-1.4,0.3-2.9,1-4.6
		c0.8-2.1,1.8-3.1,3-3.1c1.1,0,2.2,0.5,3.4,1.4c1.2,0.9,1.8,1.9,1.8,2.9c0,1.3-0.6,2.3-1.7,3c-1,0.7-2.2,1-3.6,1
		c-0.3,0-0.7-0.2-1.3-0.5c0.1,1.8,0.6,2.7,1.6,2.7c0.8,0,1.7-0.2,2.5-0.7c0.8-0.5,1.3-0.7,1.6-0.7
		C178.2,120.8,178.6,121,178.6,121.5z M175.5,116c0-0.5-0.1-0.9-0.4-1.4c-0.3-0.4-0.6-0.6-1.1-0.6c-0.6,0-1.1,0.3-1.5,0.8
		c-0.3,0.5-0.4,1-0.4,1.7c0,0.4,0.1,0.7,0.4,0.9c0.3,0.2,0.6,0.3,1,0.3C174.8,117.8,175.5,117.2,175.5,116z"/>
	<path class="st1" d="M190.6,123.8c-0.3,0.4-0.6,0.7-1.1,0.7c-0.3,0-0.9-0.2-1.6-0.6v-0.3c0-0.4,0-1,0-1.9c0-0.8,0-1.4,0-1.8
		c0-4.1-0.6-6.2-1.8-6.2c-0.3,0-0.7,0.3-1.2,0.8c-1.4,1.7-2,3.6-2,6c0,0.3,0.1,0.8,0.2,1.5c0.1,0.6,0.2,1.1,0.2,1.5
		c0,0.3-0.1,0.5-0.4,0.7c-0.3,0.2-0.5,0.3-0.8,0.3c-1.2,0-1.7-0.7-1.7-2.2v-6c0-0.2,0-0.4,0.1-0.7c0-0.3,0.1-0.5,0.1-0.7
		c0-0.2,0-0.6-0.1-1c-0.1-0.4-0.1-0.8-0.1-1c0-0.3,0.2-0.6,0.5-0.9c0.4-0.3,0.7-0.4,1-0.4c0.4,0,0.9,0.2,1.3,0.7l-0.1,1.2
		c0.7-1.1,1.6-1.7,2.6-1.7c0.7,0,1.4,0.2,2.1,0.7c0.8,0.5,1.3,1,1.6,1.6c0.8,1.5,1.2,3.4,1.2,5.8V123.8z"/>
</g>
<g>
	<path class="st2" d="M76.8,130.4c0,0,0.4,0,0.9,0"/>
</g>
<g>
	<g>
		<path class="st3" d="M196.3,63.7c0,0,11.6-8.2,24.5-37.4"/>
		<g>
			<path class="st1" d="M225.2,50.5c-0.7,0.1-1.6-0.4-1.6-1.3l-3.1-22.3l-18.9,12.3c-0.7,0.4-1.6,0.3-2.1-0.4
				c-0.4-0.7-0.3-1.6,0.4-2.1l20.8-13.3c0.4-0.3,0.9-0.3,1.5-0.1c0.4,0.1,0.7,0.6,0.9,1.2l3.4,24.5c0,0.3,0,0.6-0.1,0.9
				C226.1,50,225.6,50.3,225.2,50.5z"/>
		</g>
	</g>
</g>
</svg>
