<?xml version="1.0" encoding="utf-8"?>
<!-- Generator: Adobe Illustrator 21.0.0, SVG Export Plug-In . SVG Version: 6.00 Build 0)  -->
<svg version="1.1" id="Layer_1" xmlns="http://www.w3.org/2000/svg" xmlns:xlink="http://www.w3.org/1999/xlink" x="0px" y="0px"
	 viewBox="0 0 37 13" style="enable-background:new 0 0 37 13;" xml:space="preserve">
<style type="text/css">
	.st0{fill:#CD0000;}
</style>
<path class="st0" d="M30.5,1c3,0,5.5,2.5,5.5,5.5S33.5,12,30.5,12h-24C3.5,12,1,9.5,1,6.5S3.5,1,6.5,1H30.5 M30.5,0h-24
	C2.9,0,0,2.9,0,6.5C0,10.1,2.9,13,6.5,13h24c3.6,0,6.5-2.9,6.5-6.5C37,2.9,34.1,0,30.5,0L30.5,0z M9.2,10.2L8.4,8.7
	c-0.3-0.6-0.5-1-0.7-1.4h0C7.5,7.7,7.3,8.1,7,8.7l-0.7,1.5H4.7l2.2-3.7L4.8,2.8h1.5l0.8,1.5c0.2,0.5,0.4,0.8,0.6,1.2h0
	C8,5.1,8.1,4.8,8.3,4.3l0.8-1.5h1.5L8.5,6.4l2.2,3.8H9.2z M19.9,9.8c-0.5,0.2-1.4,0.4-2.4,0.4c-1.2,0-2.2-0.3-2.9-1
	c-0.7-0.6-1-1.6-1-2.7c0-2.3,1.7-3.8,4.1-3.8c0.9,0,1.6,0.2,1.9,0.3l-0.3,1.1c-0.4-0.2-0.9-0.3-1.7-0.3c-1.6,0-2.7,0.9-2.7,2.6
	c0,1.7,1,2.7,2.5,2.7c0.5,0,0.8-0.1,1-0.2V7.2h-1.3V6.1h2.6V9.8z M22.9,10.2l-2.4-7.3H22l1,3.3c0.3,0.9,0.5,1.8,0.7,2.7h0
	c0.2-0.9,0.5-1.8,0.8-2.7l1.1-3.4H27l-2.5,7.3H22.9z M27.7,8.7c0.4,0.2,1.1,0.5,1.8,0.5c0.9,0,1.3-0.4,1.3-1c0-0.6-0.4-0.9-1.3-1.2
	c-1.2-0.4-2-1.1-2-2.1c0-1.2,1-2.1,2.6-2.1c0.8,0,1.4,0.2,1.8,0.4l-0.3,1.1c-0.3-0.1-0.8-0.3-1.5-0.3c-0.8,0-1.2,0.5-1.2,0.9
	c0,0.6,0.4,0.8,1.4,1.2c1.3,0.5,1.9,1.1,1.9,2.2c0,1.2-0.9,2.2-2.8,2.2c-0.8,0-1.6-0.2-2-0.5L27.7,8.7z"/>
</svg>
