<?xml version="1.0" encoding="utf-8"?>
<!-- Generator: Adobe Illustrator 21.0.0, SVG Export Plug-In . SVG Version: 6.00 Build 0)  -->
<svg version="1.1" id="Layer_1" xmlns="http://www.w3.org/2000/svg" xmlns:xlink="http://www.w3.org/1999/xlink" x="0px" y="0px"
	 viewBox="0 0 14 14" style="enable-background:new 0 0 14 14;" xml:space="preserve">
<path d="M7,1c3.3,0,6,2.7,6,6s-2.7,6-6,6s-6-2.7-6-6S3.7,1,7,1 M7,0C3.1,0,0,3.1,0,7s3.1,7,7,7s7-3.1,7-7S10.9,0,7,0L7,0z M4.7,10.2
	V9.4l0.8-0.7C7,7.3,7.8,6.5,7.8,5.6c0-0.6-0.3-1.1-1.2-1.1C6,4.5,5.5,4.8,5.2,5L4.8,4.1c0.5-0.4,1.2-0.7,2-0.7c1.5,0,2.2,0.9,2.2,2
	c0,1.2-0.8,2.1-2,3.2L6.4,9.1v0h2.7v1H4.7z"/>
</svg>
