<?xml version="1.0" encoding="utf-8"?>
<!-- Generator: Adobe Illustrator 21.0.0, SVG Export Plug-In . SVG Version: 6.00 Build 0)  -->
<svg version="1.1" id="Layer_1" xmlns="http://www.w3.org/2000/svg" xmlns:xlink="http://www.w3.org/1999/xlink" x="0px" y="0px"
	 viewBox="0 0 29 13" style="enable-background:new 0 0 29 13;" xml:space="preserve">
<style type="text/css">
	.st0{fill:#4C4C4C;}
</style>
<path class="st0" d="M22.5,1c3,0,5.5,2.5,5.5,5.5S25.5,12,22.5,12h-16C3.5,12,1,9.5,1,6.5S3.5,1,6.5,1H22.5 M22.5,0h-16
	C2.9,0,0,2.9,0,6.5C0,10.1,2.9,13,6.5,13h16c3.6,0,6.5-2.9,6.5-6.5C29,2.9,26.1,0,22.5,0L22.5,0z"/>
<g>
	<path class="st0" d="M11.6,6.4c0,2.4-1.5,3.8-3.4,3.8c-2,0-3.3-1.5-3.3-3.6c0-2.2,1.4-3.7,3.4-3.7C10.4,2.8,11.6,4.4,11.6,6.4z
		 M6.3,6.5c0,1.5,0.7,2.6,2,2.6c1.3,0,2-1.2,2-2.7c0-1.3-0.7-2.6-2-2.6C7,3.9,6.3,5.1,6.3,6.5z"/>
	<path class="st0" d="M13.8,4h-2V2.9h5.4V4h-2.1v6.1h-1.3V4z"/>
	<path class="st0" d="M22.9,9.9c-0.3,0.2-1,0.3-1.8,0.3c-2.3,0-3.7-1.4-3.7-3.6c0-2.4,1.6-3.8,3.8-3.8c0.9,0,1.5,0.2,1.7,0.3l-0.3,1
		c-0.3-0.1-0.8-0.3-1.4-0.3c-1.5,0-2.5,0.9-2.5,2.6c0,1.6,0.9,2.6,2.5,2.6c0.5,0,1.1-0.1,1.4-0.3L22.9,9.9z"/>
</g>
</svg>
