<?xml version="1.0" encoding="utf-8"?>
<!-- Generator: Adobe Illustrator 27.6.1, SVG Export Plug-In . SVG Version: 6.00 Build 0)  -->
<svg version="1.1" id="Laag_1" xmlns="http://www.w3.org/2000/svg" xmlns:xlink="http://www.w3.org/1999/xlink" x="0px" y="0px"
     viewBox="0 0 64 64" style="enable-background:new 0 0 64 64;" xml:space="preserve">
<style type="text/css">
	.st0{fill:#FFFFFF;}
</style>
    <g id="Icon">

	<g transform="translate(6 6) scale(0.82)">
    	<path d="M28.3761 60.2685H60.4805V37.2818H45.5198C44.5781 37.2818 43.7862 36.9608 43.1441 36.3187C42.502 35.6766 42.1596 34.8633 42.1168 33.8788V18.9823H28.3761V60.2685ZM37.4937 8.64474V6.33323C37.4937 6.03359 37.3867 5.77675 37.1727 5.56272C36.9587 5.34869 36.7018 5.22028 36.4022 5.17747H11.1682C10.8685 5.17747 10.5903 5.30589 10.3335 5.56272C10.0766 5.81956 9.96961 6.07639 10.0124 6.33323V8.64474C10.0124 8.94438 10.1194 9.22262 10.3335 9.47945C10.5475 9.73629 10.8257 9.8433 11.1682 9.8005H36.4022C36.7018 9.8005 36.9587 9.69348 37.1727 9.47945C37.3867 9.26543 37.4937 8.98719 37.4937 8.64474ZM46.6756 32.723H57.3984L46.6756 22.0002V32.723ZM65.0393 37.2818V61.3601C65.0393 62.3446 64.6968 63.1579 64.0119 63.8C63.327 64.4421 62.5137 64.7846 61.572 64.8274H27.2203C26.2358 64.8274 25.4225 64.4849 24.7804 63.8C24.1383 63.1151 23.7959 62.3018 23.7531 61.3601V55.6455H4.29784C3.3133 55.6455 2.49999 55.3031 1.85791 54.6182C1.21582 53.9333 0.873372 53.1414 0.830566 52.2425V4.08592C0.830566 3.10139 1.17301 2.28808 1.85791 1.64599C2.5428 1.0039 3.35611 0.661458 4.29784 0.618652H43.2725C44.2143 0.618652 45.0276 0.961099 45.7125 1.64599C46.3973 2.33088 46.7184 3.14419 46.6756 4.08592V15.8361C47.1893 16.1358 47.6173 16.4568 47.9598 16.7992L62.5993 31.4388C63.2842 32.0809 63.8621 32.9798 64.333 34.1356C64.8038 35.2914 65.0393 36.3401 65.0393 37.2818Z" fill="white"/>
	</g>

</g>
</svg>
