<?xml version="1.0" encoding="utf-8"?>
<!-- Generator: Adobe Illustrator 27.6.1, SVG Export Plug-In . SVG Version: 6.00 Build 0)  -->
<svg version="1.1" id="Layer_1" xmlns="http://www.w3.org/2000/svg" xmlns:xlink="http://www.w3.org/1999/xlink" x="0px" y="0px"
	 viewBox="0 0 512 512" style="enable-background:new 0 0 512 512;" xml:space="preserve">
<style type="text/css">
	.st0{fill-rule:evenodd;clip-rule:evenodd;fill:#FFFFFF;}
</style>
<path class="st0" d="M222.7,181.8h141.7l-84.2,57.7L223,200.2C225.2,194.4,225.2,187.8,222.7,181.8L222.7,181.8z M185.7,215.2
	l20.7-12.6c6.1-3.7,8.2-11.7,4.6-17.9l-18.6-32.3c-1.9-3.3-4.8-5.4-8.5-6.3c-3.7-0.8-7.3-0.2-10.4,2l-34,23.4
	c-16.2,57,56.6,180.5,112.3,194.6l37.3-17.7c3.5-1.6,5.8-4.4,6.9-8s0.7-7.2-1.2-10.5L276,297.6c-3.6-6.2-11.5-8.4-17.8-5L237,304.2
	C216,285.5,191.3,242.7,185.7,215.2L185.7,215.2z M374.7,189.2l-91.1,62.4c-2.1,1.5-4.9,1.3-6.9-0.1l-60.5-41.5
	c-1.1,1-2.4,2-3.8,2.8l-13.1,8c6.9,22.2,23.8,51.6,39.6,68.6l13.4-7.3c12-6.6,27.1-2.3,33.9,9.5l11.6,20h67.4c5.3,0,9.7-4.4,9.7-9.7
	V191.4C375,190.7,374.9,189.9,374.7,189.2L374.7,189.2z"/>
</svg>
