<?xml version="1.0" encoding="utf-8"?>
<!-- Generator: Adobe Illustrator 27.6.1, SVG Export Plug-In . SVG Version: 6.00 Build 0)  -->
<svg version="1.1" id="Laag_1" xmlns="http://www.w3.org/2000/svg" xmlns:xlink="http://www.w3.org/1999/xlink" x="0px" y="0px"
	 viewBox="0 0 64 64" style="enable-background:new 0 0 64 64;" xml:space="preserve">
<style type="text/css">
	.st0{fill:#FFFFFF;}
</style>
<g id="icon">
	<g>
		<path class="st0" d="M31.6,33.1c5.9,0,10.6-2.6,10.6-6c0-0.5,0-2.4,0-2.9c0-3.4-4.7-6-10.6-6S21,20.8,21,24.2c0,0.5,0,2.4,0,2.9
			c0,0.6,0.2,1.2,0.4,1.8C21.2,29.4,21,30,21,30.5v2.9c0,0.6,0.2,1.2,0.4,1.7c-0.2,0.6-0.4,1.1-0.4,1.7v2.9c0,3.4,4.7,6,10.6,6
			s10.6-2.6,10.6-6v-2.9c0-0.2,0-0.2,0-0.4c-0.7,1-3.7,4.2-10.3,4.2c-6.9,0-8.4-2.7-8.5-3.1c-0.1-0.2-0.1-0.2,0-0.2
			c1.9,1.4,4.9,2.2,8.2,2.2c5.9,0,10.6-2.7,10.6-6v-2.9c0-0.2,0-0.2,0-0.4c-0.7,1-3.7,4.2-10.3,4.2c-6.9,0-8.4-2.7-8.5-3.1
			c-0.1-0.2-0.1-0.2,0-0.2C25.3,32.3,28.3,33.1,31.6,33.1z M23.2,24.2c0-2.1,3.8-3.8,8.4-3.8s8.4,1.7,8.4,3.8S36.3,28,31.6,28
			S23.2,26.3,23.2,24.2z"/>
		<path class="st0" d="M30,25.6v0.5h1.2v-0.4c0.2,0,0.5,0,0.8,0h0.3v0.4h1.1v-0.5c2.1-0.2,3.1-1,3.1-2c0-0.4-0.1-0.6-0.2-1h-1.5
			c0.2,0.4,0.2,0.6,0.2,1c0,0.5-0.5,0.9-1.5,1v-1.4h-1.1v1.4c-0.2,0-0.3,0-0.5,0c-0.2,0-0.4,0-0.6,0v-1.4h-1.2v1.4
			c-1-0.2-1.6-0.5-1.6-1c0-0.3,0.1-0.5,0.2-0.9h-1.6c-0.2,0.3-0.2,0.6-0.2,0.9C26.8,24.6,27.8,25.4,30,25.6z"/>
	</g>
</g>
</svg>
