<?xml version="1.0" encoding="utf-8"?>
<!-- Generator: Adobe Illustrator 27.6.1, SVG Export Plug-In . SVG Version: 6.00 Build 0)  -->
<svg version="1.1" id="Laag_1" xmlns="http://www.w3.org/2000/svg" xmlns:xlink="http://www.w3.org/1999/xlink" x="0px" y="0px"
	 viewBox="0 0 64 64" style="enable-background:new 0 0 64 64;" xml:space="preserve">
<style type="text/css">
	.st0{fill:#FFFFFF;}
</style>
<path id="Icon" class="st0" d="M32.3,32.3c0.7,0,1.3,0.6,1.3,1.3c0,0.7-0.6,1.3-1.3,1.3c-0.7,0-1.3-0.6-1.3-1.3
	C31,32.9,31.5,32.3,32.3,32.3z M30.4,17.7c0.9,0,1.6,0.7,1.6,1.6s-0.7,1.6-1.6,1.6s-1.6-0.7-1.6-1.6S29.6,17.7,30.4,17.7z
	 M34.6,15.7c0.6,0,1,0.5,1,1s-0.5,1-1,1c-0.6,0-1-0.5-1-1S34,15.7,34.6,15.7z M42.3,39.3L36.2,30v-6.2c0.4-0.1,1-0.3,1.5-0.4
	c0.9-0.3,0.7-1.5,0-1.5H26.4c-0.7,0-0.9,1.2,0,1.5c0.5,0.2,1.1,0.3,1.5,0.4V30l-6.2,9.3c-2.3,3.4,0.2,8.1,4.3,8.1
	c7.6,0,4.3,0,11.9,0C42.1,47.3,44.6,42.7,42.3,39.3z M23.4,40.4c1.4-2.1,5.2-8,6.5-9.8c0-3.5,0-3.1,0-6.6c2.6,0,1.5,0,4.2,0
	c0,3.5,0,3.1,0,6.6c0.5,0.7,0.3,0.4,3.8,5.8h-10c0,0-0.6,0.7-1.3,1.6c0.7,0.1,1.2,0.6,1.2,1.3c0,0.7-0.6,1.3-1.3,1.3
	c-0.6,0-1-0.4-1.2-0.9c-0.3,0.3-0.5,0.6-0.7,0.9c-1,1.4-0.8,2.9-0.6,3.8c0,0-0.1,0.2-0.3,0c-0.2-0.2-0.4-0.5-0.5-0.7
	C22.8,42.6,22.8,41.4,23.4,40.4z M34.3,43.2c-0.7,0-1.4-0.6-1.4-1.4s0.6-1.4,1.4-1.4s1.4,0.6,1.4,1.4S35.1,43.2,34.3,43.2z"/>
</svg>
