<?xml version="1.0" encoding="utf-8"?>
<!-- Generator: Adobe Illustrator 27.6.1, SVG Export Plug-In . SVG Version: 6.00 Build 0)  -->
<svg version="1.1" id="Laag_1" xmlns="http://www.w3.org/2000/svg" xmlns:xlink="http://www.w3.org/1999/xlink" x="0px" y="0px"
	 viewBox="0 0 64 64" style="enable-background:new 0 0 64 64;" xml:space="preserve">
<style type="text/css">
	.st0{fill:#FFFFFF;}
</style>
<g id="Icon">
	<g>
		<path class="st0" d="M36.5,23.1c0-0.3-0.1-0.5-0.3-0.7l-3.6-3.6c-0.2-0.2-0.4-0.3-0.7-0.3h-4.4c-0.3,0-0.5,0.3-0.5,0.5v11.6
			c0,0.3,0.3,0.5,0.5,0.5h8.5c0.3,0,0.5-0.3,0.5-0.5L36.5,23.1L36.5,23.1z M36,23c-1.2,0.5-2.5,0.9-4.5,1c-0.3,0-0.5-0.3-0.5-0.5
			c0.1-2,0.4-3.4,1-4.5c0-0.1,0.1-0.1,0.1-0.1v3.8c0,0.2,0.1,0.3,0.3,0.3L36,23C36.1,22.9,36.1,23,36,23z"/>
		<polygon class="st0" points="32.5,32 31,32 31,36.6 28,38.5 28,40.3 31.7,37.9 35.4,40.3 35.4,38.5 32.5,36.6 		"/>
		<path class="st0" d="M23,33.3c-0.2-0.2-0.4-0.3-0.7-0.3h-4.4c-0.3,0-0.5,0.3-0.5,0.5v11.6c0,0.3,0.3,0.5,0.5,0.5h8.5
			c0.3,0,0.5-0.3,0.5-0.5v-7.4c0-0.3-0.1-0.5-0.3-0.7L23,33.3z M26.5,37.6c-1.2,0.5-2.5,0.9-4.5,1c-0.3,0-0.5-0.3-0.5-0.5
			c0.1-2,0.4-3.4,1-4.5c0-0.1,0.1-0.1,0.1-0.1v3.8c0,0.2,0.1,0.3,0.3,0.3L26.5,37.6C26.6,37.5,26.6,37.6,26.5,37.6z"/>
		<path class="st0" d="M45.7,37l-3.6-3.6c-0.2-0.2-0.4-0.3-0.7-0.3H37c-0.3,0-0.5,0.3-0.5,0.5v11.6c0,0.3,0.3,0.5,0.5,0.5h8.5
			c0.3,0,0.5-0.3,0.5-0.5v-7.4C46,37.4,45.9,37.2,45.7,37z M45.5,37.6c-1.2,0.5-2.5,0.9-4.5,1c-0.3,0-0.5-0.3-0.5-0.5
			c0.1-2,0.4-3.4,1-4.5c0-0.1,0.1-0.1,0.1-0.1v3.8c0,0.2,0.1,0.3,0.3,0.3L45.5,37.6C45.6,37.5,45.6,37.6,45.5,37.6z"/>
	</g>
</g>
</svg>
