<?xml version="1.0" encoding="utf-8"?>
<!-- Generator: Adobe Illustrator 27.6.1, SVG Export Plug-In . SVG Version: 6.00 Build 0)  -->
<svg version="1.1" id="Laag_1" xmlns="http://www.w3.org/2000/svg" xmlns:xlink="http://www.w3.org/1999/xlink" x="0px" y="0px"
	 viewBox="0 0 24 24" style="enable-background:new 0 0 24 24;" xml:space="preserve">
<style type="text/css">
	.st0{fill:#FFFFFF;}
</style>
<g id="icon">
	<g>
		<path class="st0" d="M12,6c-3.3,0-6,2.7-6,6s2.7,6,6,6s6-2.7,6-6S15.3,6,12,6z M11.7,16c-0.6,0-0.9-0.3-0.9-0.9c0-0.5,0.3-1,0.9-1
			c0.6,0,0.9,0.3,0.9,1C12.6,15.6,12.3,16,11.7,16z M13.1,11.9l-0.6,0.3c-0.3,0.2-0.5,0.4-0.5,0.7c0,0.2,0.1,0.4,0.2,0.7l-1.1,0.1
			c-0.2-0.2-0.3-0.5-0.3-0.9c0-0.5,0.2-0.9,0.9-1.3l0.6-0.3c0.5-0.3,0.6-0.5,0.6-0.9s-0.3-0.7-1.1-0.7c-0.5,0-1,0.1-1.6,0.3V8.8
			c0.6-0.3,1.2-0.4,1.9-0.4c1.3,0,2.2,0.7,2.2,1.7C14.3,11,14,11.5,13.1,11.9z"/>
	</g>
</g>
</svg>
