<?xml version="1.0" encoding="utf-8"?>
<!-- Generator: Adobe Illustrator 27.6.1, SVG Export Plug-In . SVG Version: 6.00 Build 0)  -->
<svg version="1.1" id="Capa_1" xmlns="http://www.w3.org/2000/svg" xmlns:xlink="http://www.w3.org/1999/xlink" x="0px" y="0px"
	 viewBox="0 0 512 512" style="enable-background:new 0 0 512 512;" xml:space="preserve">
<style type="text/css">
	.st0{fill:#FFFFFF;}
</style>
<g>
	<g>
		<path class="st0" d="M256,145.1c-46.6,0-84.5,38.8-84.5,85.3c0,45.7,0,32.4,0,78c0,10.7,8.7,19.5,19.5,19.5
			c10.7,0,19.5-8.7,19.5-19.5v-65c0-10.7-8.7-19.5-19.5-19.5c-2.2,0-4.3,0.4-6.2,1.1c2.8-36.9,33.6-67,71.2-67s68.4,30.1,71.2,67
			c-2-0.7-4-1.1-6.2-1.1c-10.7,0-19.5,8.7-19.5,19.5v65c0,8.5,5.4,15.6,13,18.3v7.7c0,3.6-2.9,6.5-6.5,6.5h-33.7
			c-2.7-7.5-9.8-13-18.3-13c-10.7,0-19.5,8.7-19.5,19.5s8.7,19.5,19.5,19.5c8.5,0,15.6-5.4,18.3-13H308c10.7,0,19.5-8.7,19.5-19.5
			v-7.7c7.5-2.7,13-9.8,13-18.3c0-45.6,0-32.3,0-78C340.5,183.9,302.6,145.1,256,145.1z"/>
	</g>
</g>
<g>
	<g>
		<path class="st0" d="M145.1,256.4v39c0,8.5,5.9,15.6,13.4,18.3v-75.6C151,240.8,145.1,248,145.1,256.4z"/>
	</g>
</g>
<g>
	<g>
		<path class="st0" d="M353.5,238.1v75.6c7.5-2.7,13.4-9.8,13.4-18.3v-39C366.9,248,361,240.8,353.5,238.1z"/>
	</g>
</g>
</svg>
