<?xml version="1.0" encoding="utf-8"?>
<!-- Generator: Adobe Illustrator 27.6.1, SVG Export Plug-In . SVG Version: 6.00 Build 0)  -->
<svg version="1.1" id="Laag_1" xmlns="http://www.w3.org/2000/svg" xmlns:xlink="http://www.w3.org/1999/xlink" x="0px" y="0px"
	 viewBox="0 0 24 24" style="enable-background:new 0 0 24 24;" xml:space="preserve">
<style type="text/css">
	.st0{fill:#FFFFFF;}
</style>
<g id="icon">
	<g>
		<path class="st0" d="M12,6.6C9,6.6,6.6,9,6.6,12S9,17.4,12,17.4s5.4-2.4,5.4-5.4S15,6.6,12,6.6z M11.7,15.6
			c-0.5,0-0.8-0.3-0.8-0.8c0-0.5,0.3-0.9,0.8-0.9c0.5,0,0.8,0.3,0.8,0.9C12.6,15.3,12.3,15.6,11.7,15.6z M13,11.9l-0.5,0.3
			c-0.3,0.2-0.4,0.4-0.4,0.6c0,0.2,0.1,0.4,0.2,0.6l-1,0.1c-0.2-0.2-0.3-0.5-0.3-0.8c0-0.5,0.2-0.8,0.8-1.2l0.6-0.3
			c0.4-0.3,0.6-0.5,0.6-0.8c0-0.4-0.3-0.6-1-0.6c-0.5,0-0.9,0.1-1.4,0.3v-1c0.6-0.3,1.1-0.4,1.7-0.4c1.2,0,1.9,0.6,1.9,1.5
			C14.1,11.1,13.8,11.5,13,11.9z"/>
	</g>
</g>
</svg>
