<?xml version="1.0" encoding="utf-8"?>
<!-- Generator: Adobe Illustrator 27.6.1, SVG Export Plug-In . SVG Version: 6.00 Build 0)  -->
<svg version="1.1" id="Laag_1" xmlns="http://www.w3.org/2000/svg" xmlns:xlink="http://www.w3.org/1999/xlink" x="0px" y="0px"
	 viewBox="0 0 64 64" style="enable-background:new 0 0 64 64;" xml:space="preserve">
<style type="text/css">
	.st0{fill:#FFFFFF;}
</style>
<g id="Production">
	<g>
		<path class="st0" d="M35,32L35,32c0.3-0.6,0.5-1.2,0.6-1.8c0.7-0.6,1.1-1.6,1.1-2.8c0-0.4,0-1.4-0.6-2.1c0.2-1.7,0.3-4.3-0.4-5.4
			c-0.8-1.3-1.8-1.9-3.7-1.5c-1.2-0.6-2.1-1-4.3-0.4c-1.5,0.4-3.2,1-4,2c-0.8,1-0.8,3.7-0.6,5.4c-0.6,0.7-0.6,1.6-0.6,2
			c0,1.2,0.4,2.2,1.1,2.8c0.2,1.3,0.8,2.5,1.9,3.7c-0.1,0.4-0.1,0.9-0.2,1.4c-1.3,0.4-4.9,1.5-6.1,2.8c-1.5,1.6-2.2,7.6-2.2,7.6
			h12.8H32v-7.3c-0.7,1-1.6,1.9-2.4,2.4c-1.2-0.9-3.4-2.8-3.1-4.6c0.1-1,0-0.3,0.4-2.8c-1.2-1.1-2.1-2.5-2.1-4.1
			c-0.8-0.3-1-1.3-1-1.9c0-0.6,0.2-1,0.4-1.1c0.2-0.1,0.4,0,0.5,0c0.1,0.3,0.1,0.6,0.1,0.7c0.1,0.4,0.5,0.4,0.5,0.4V24
			c1.1-0.1,3.2-0.4,5.5-1.6l2.7,1.8v3.2c0,0,0.4,0,0.5-0.4c0-0.1,0.1-0.3,0.1-0.7c0.1-0.1,0.3-0.1,0.5,0c0.2,0.1,0.4,0.5,0.4,1.1
			c0,0.6-0.2,1.7-1,1.9c0,0.6-0.1,1.1-0.5,1.5c-0.4,0.4-1.2,0.7-2.1,0.7c-0.1-0.2-0.3-0.3-0.5-0.3H29c-0.3,0-0.6,0.3-0.6,0.8
			s0.3,0.8,0.6,0.8h1.9c0.2,0,0.4-0.1,0.5-0.3c0.6,0,1.1-0.1,1.6-0.3c-0.5,0.6-1.1,1.2-1.7,1.7c-0.5,0.5-2,0.9-3.4,0.2
			c0.8,1.2,2.3,1.6,3.5,1.3v0c0.1,0,0.3-0.1,0.5-0.2v0C33.2,34.7,34.4,33.2,35,32z"/>
		<path class="st0" d="M47.2,34.5H34.1c-0.3,0-0.6,0.2-0.6,0.5v9.2c0,0.3,0.3,0.5,0.6,0.5h4.3L38.1,46c-0.1,0.2-0.3,0.3-0.5,0.3
			h-0.5c-0.3,0-0.5,0.2-0.5,0.5v0.5h8.2v-0.5c0-0.3-0.2-0.5-0.5-0.5h-0.5c-0.2,0-0.4-0.1-0.5-0.3L43,44.8h4.3c0.3,0,0.6-0.2,0.6-0.5
			v-9.2C47.8,34.8,47.5,34.5,47.2,34.5z M46.3,42.7H35.1v-6.6h11.2V42.7z"/>
	</g>
	<path class="st0" d="M47.2,34.5H34.1c-0.3,0-0.6,0.2-0.6,0.5v9.2c0,0.3,0.3,0.5,0.6,0.5h4.3L38.1,46c-0.1,0.2-0.3,0.3-0.5,0.3h-0.5
		c-0.3,0-0.5,0.2-0.5,0.5v0.5h8.2v-0.5c0-0.3-0.2-0.5-0.5-0.5h-0.5c-0.2,0-0.4-0.1-0.5-0.3L43,44.8h4.3c0.3,0,0.6-0.2,0.6-0.5v-9.2
		C47.8,34.8,47.5,34.5,47.2,34.5z M46.3,42.7H35.1v-6.6h11.2V42.7z"/>
</g>
</svg>
