<?xml version="1.0" encoding="utf-8"?>
<!-- Generator: Adobe Illustrator 27.6.1, SVG Export Plug-In . SVG Version: 6.00 Build 0)  -->
<svg version="1.1" id="Laag_1" xmlns="http://www.w3.org/2000/svg" xmlns:xlink="http://www.w3.org/1999/xlink" x="0px" y="0px"
	 viewBox="0 0 64 64" style="enable-background:new 0 0 64 64;" xml:space="preserve">
<style type="text/css">
	.st0{fill:#FFFFFF;}
</style>
<g id="Icon">
	<g>
		<path class="st0" d="M27.7,34.2c-2-2.5-3.6-2.2-5.5-4.4c-0.2-0.2-0.4-0.1-0.4,0.1c-0.2,1.2-0.7,4.4,1.5,6.7
			c2.9,2.9,5.1,2.7,5.6,5.3C28.9,42,30.3,37.5,27.7,34.2z"/>
		<path class="st0" d="M38.8,29.1c0-0.2-0.4-0.3-0.5,0c-1.6,5-5.6,4.9-6.4,10.5c-0.1,0-0.2-0.1-0.2-0.3c0-1.1,0.2-2.6,0.5-4.2
			c-0.2-0.5-0.3-0.9-0.5-1.3c-0.7-1.9-1.2-3.1-1.2-4.4c6.6-0.2,5-9,4.6-10.7c0-0.2-0.2-0.2-0.3-0.2c-1.5,0.6-4,2.2-6.4,6.3
			c-0.1,0-0.2-0.1-0.1-0.2c0.6-2.6,2.5-4.7,3.9-5.6c0,0-0.5-0.5-0.8-0.9c-0.1-0.1-0.2-0.1-0.2-0.1c-0.9,0.4-2.4,1.4-2.4,1.4
			s-0.4-1.3-0.8-2.2c-0.1-0.2-0.3-0.2-0.4-0.1c-1.8,2-6,9,1,12c-0.2,2.7,0.4,3.5,1.2,6.5c1.2,3.7-0.4,7.6-1.1,9.6
			c-0.5,1.2,0.4,1.5,1.2,1.9c0.9,0.3,1.5,0.2,1.8-0.7c0.2-0.7,0.4-1.4,0.5-2c0.1-0.2,0.2-0.4,0.2-0.7c0.9-3.2,3.8-3.2,5.4-6.3
			C39.5,34.2,39.2,31.8,38.8,29.1z"/>
	</g>
</g>
</svg>
