<?xml version="1.0" encoding="utf-8"?>
<!-- Generator: Adobe Illustrator 27.6.1, SVG Export Plug-In . SVG Version: 6.00 Build 0)  -->
<svg version="1.1" id="Layer_1" xmlns="http://www.w3.org/2000/svg" xmlns:xlink="http://www.w3.org/1999/xlink" x="0px" y="0px"
	 viewBox="0 0 24 24" style="enable-background:new 0 0 24 24;" xml:space="preserve">
<style type="text/css">
	.st0{fill:#FFFFFF;}
</style>
<path class="st0" d="M14.4,7H9.6C8.2,7,7,8.2,7,9.6v4.6c0,1.5,1.2,2.6,2.6,2.6h4.6c1.5,0,2.6-1.2,2.6-2.6V9.6C17,8.2,15.8,7,14.4,7z
	 M15.5,12.3h-1.5l-1.1,2.1c-0.1,0.2-0.4,0.2-0.6,0L10.8,11l-0.3,1.1c-0.1,0.1-0.2,0.2-0.2,0.2H8.5c-0.2,0-0.3-0.2-0.3-0.3
	s0.2-0.3,0.3-0.3H10l0.5-1.5c0.1-0.2,0.4-0.3,0.6,0l1.5,3.5l0.9-1.8c0.1-0.1,0.2-0.2,0.2-0.2h1.8c0.2,0,0.3,0.2,0.3,0.3
	C15.8,12.2,15.7,12.2,15.5,12.3L15.5,12.3z"/>
</svg>
