<?xml version="1.0" encoding="utf-8"?>
<!-- Generator: Adobe Illustrator 27.6.1, SVG Export Plug-In . SVG Version: 6.00 Build 0)  -->
<svg version="1.1" id="Laag_1" xmlns="http://www.w3.org/2000/svg" xmlns:xlink="http://www.w3.org/1999/xlink" x="0px" y="0px"
	 viewBox="0 0 64 64" style="enable-background:new 0 0 64 64;" xml:space="preserve">
<style type="text/css">
	.st0{fill:#FFFFFF;}
</style>
<g id="Icon">
	<g>
		<path class="st0" d="M28.6,29.1c0.1-1.6-0.4-3.1-1.1-3.4h5c1.2,0,2.2,0.7,2.7,1.7l2-0.4c-0.7-2-2.5-3.4-4.8-3.4H22.3
			c-2.8,0-5.1,2.3-5.1,5.1s2.3,5.1,5.1,5.1h3c0.1-0.9,0.4-1.8,1-2.6C26.9,30.3,27.7,29.6,28.6,29.1z M20.8,31.4
			c-1.1-0.7-1.6-1.6-1.5-2.7c0-0.8,0.4-1.6,0.9-2l0.9,1c-0.8,0.8-0.9,2.7,0,3.8C21.1,31.5,21,31.5,20.8,31.4z"/>
		<path class="st0" d="M46.3,31.4c-0.6-2.7-3.3-4.5-6-3.9l-9.9,2.1c-2.7,0.6-4.5,3.3-3.9,6s3.3,4.5,6,3.9l9.9-2.1
			C45.2,36.9,46.9,34.2,46.3,31.4z M30.5,37.5c-1.1-0.4-1.9-1.2-2-2.3c-0.2-0.8,0-1.6,0.4-2.2l1.1,0.8c-0.6,1-0.3,2.8,0.8,3.7
			C30.8,37.5,30.7,37.5,30.5,37.5z M42.1,35.5l-4.6,1c0.3-0.6,0.5-1.7,0.2-3c-0.3-1.6-1.1-2.8-1.7-2.9l4.8-1
			c1.6-0.3,3.3,0.7,3.6,2.4C44.7,33.5,43.7,35.1,42.1,35.5z"/>
	</g>
</g>
</svg>
