<?xml version="1.0" encoding="utf-8"?>
<!-- Generator: Adobe Illustrator 27.6.1, SVG Export Plug-In . SVG Version: 6.00 Build 0)  -->
<svg version="1.1" id="Laag_1" xmlns="http://www.w3.org/2000/svg" xmlns:xlink="http://www.w3.org/1999/xlink" x="0px" y="0px"
	 viewBox="0 0 64 64" style="enable-background:new 0 0 64 64;" xml:space="preserve">
<style type="text/css">
	.st0{fill:#FFFFFF;}
</style>
<g id="Icon">
	<g>
		<path class="st0" d="M30.8,40.1l3.7-3.7c-0.1-0.6-0.2-1.3-0.1-1.8H33v-3h3l0,0c0.1-0.1,0.3-0.3,0.3-0.3c0.7-0.7,1.4-1.2,2.2-1.4
			v-11c0-0.5-0.4-1-1-1H21.3c-0.5,0-1,0.4-1,1v23.8h7.5V38h3C30.8,38,30.8,40.1,30.8,40.1z M33,21.4h3v3h-3V21.4z M33,26.5h3v3h-3
			V26.5z M25.8,34.6h-3v-3h3V34.6z M25.8,29.5h-3v-3h3V29.5z M25.8,24.5h-3v-3h3V24.5z M27.9,21.4h3v3h-3V21.4z M27.9,26.5h3v3h-3
			V26.5z M27.9,34.6v-3h3v3H27.9z"/>
		<path class="st0" d="M45,35.1c-0.1-0.3-0.3-0.3-0.5-0.2c-0.5,0.4-1,0.9-1.3,1.2c-0.4,0.3-1.2,0.9-1.8,0.4l-1.6-1.6
			c-0.5-0.5,0.1-1.3,0.4-1.8c0.3-0.3,0.7-0.8,1.2-1.3c0.2-0.2,0.1-0.4-0.2-0.5c-1.3-0.4-2.6,0.1-3.8,1.2c-1.8,1.8-1.9,4,0.3,6.1
			c0.2,0.2,0.4,0.4,0.5,0.5c0,0.1-0.2,0.1-0.3,0.1c-0.3-0.1-1.1-0.4-2.1-1.6l-5.9,5.9c-0.8,0.8-0.3,1.7,0.4,2.4
			c0.8,0.8,1.7,1.3,2.4,0.4l6.5-6.5c1.5,0.7,3,0.4,4.4-0.9C44.8,37.6,45.2,36.3,45,35.1z M31.8,45.1c-0.4,0-0.8-0.4-0.8-0.8
			c0-0.4,0.4-0.8,0.8-0.8s0.8,0.4,0.8,0.8C32.6,44.8,32.3,45.1,31.8,45.1z"/>
	</g>
</g>
</svg>
