<?xml version="1.0" encoding="utf-8"?>
<!-- Generator: Adobe Illustrator 27.6.1, SVG Export Plug-In . SVG Version: 6.00 Build 0)  -->
<svg version="1.1" id="Layer_1" xmlns="http://www.w3.org/2000/svg" xmlns:xlink="http://www.w3.org/1999/xlink" x="0px" y="0px"
	 viewBox="0 0 512 512" style="enable-background:new 0 0 512 512;" xml:space="preserve">
<style type="text/css">
	.st0{fill:#FFFFFF;}
</style>
<g>
	<path class="st0" d="M308.8,263.1c0-9.2-6.6-16.9-15.3-18.7c0-0.1,0-0.2,0-0.4c0-16.3-13.3-29.6-29.6-29.6
		c-10.9,0-20.3,5.9-25.5,14.6c-1.4-0.4-2.9-0.6-4.4-0.6c-9.3,0-16.8,7.3-17.3,16.4c-7.8,2.4-13.5,9.6-13.5,18.2
		c0,10.5,8.5,19.1,19.1,19.1h67.4C300.3,282.1,308.8,273.6,308.8,263.1z"/>
	<path class="st0" d="M183.7,285.8c-1.4-0.3-2.8-0.5-4.2-0.5c-3.4,0-6.7,0.9-9.6,2.7c-4.1,2.6-7,6.6-8.1,11.3
		c-1.1,4.7-0.3,9.6,2.3,13.7c2.6,4.1,6.6,7,11.3,8.1c4.7,1.1,9.6,0.3,13.7-2.3c4.1-2.6,7-6.6,8.1-11.3s0.3-9.6-2.3-13.7
		C192.5,289.8,188.5,287,183.7,285.8L183.7,285.8z"/>
	<path class="st0" d="M175.5,226.1c4.7,1.1,9.6,0.3,13.7-2.3c4.1-2.6,7-6.6,8.1-11.3s0.3-9.6-2.3-13.7c-2.6-4.1-6.6-7-11.3-8.1
		c-1.4-0.3-2.8-0.5-4.2-0.5c-3.4,0-6.7,0.9-9.6,2.7c-4.1,2.6-7,6.6-8.1,11.3c-1.1,4.7-0.3,9.6,2.3,13.7
		C166.7,222.1,170.8,225,175.5,226.1z"/>
	<path class="st0" d="M260.2,328.3c-1.4-0.3-2.8-0.5-4.2-0.5c-3.4,0-6.7,0.9-9.6,2.7c-4.1,2.6-7,6.6-8.1,11.3
		c-1.1,4.7-0.3,9.6,2.3,13.7c2.6,4.1,6.6,7,11.3,8.1c4.7,1.1,9.6,0.3,13.7-2.3c4.1-2.6,7-6.6,8.1-11.3c1.1-4.7,0.3-9.6-2.3-13.7
		C268.9,332.3,264.9,329.4,260.2,328.3L260.2,328.3z"/>
	<path class="st0" d="M251.9,183.7c4.7,1.1,9.6,0.3,13.7-2.3c4.1-2.6,7-6.6,8.1-11.3s0.3-9.6-2.3-13.7s-6.6-7-11.3-8.1
		c-1.4-0.3-2.8-0.5-4.2-0.5c-3.4,0-6.7,0.9-9.6,2.7c-4.1,2.6-7,6.6-8.1,11.3c-1.1,4.7-0.3,9.6,2.3,13.7
		C243.2,179.7,247.2,182.6,251.9,183.7L251.9,183.7z"/>
	<path class="st0" d="M328.3,226.1c4.7,1.1,9.6,0.3,13.7-2.3c4.1-2.6,7-6.6,8.1-11.3c1.1-4.7,0.3-9.6-2.3-13.7
		c-2.6-4.1-6.6-7-11.3-8.1c-1.4-0.3-2.8-0.5-4.2-0.5c-3.4,0-6.7,0.9-9.6,2.7c-4.1,2.6-7,6.6-8.1,11.3c-1.1,4.7-0.3,9.6,2.3,13.7
		C319.6,222.1,323.6,225,328.3,226.1L328.3,226.1z"/>
	<path class="st0" d="M336.6,285.8c-1.4-0.3-2.8-0.5-4.2-0.5c-3.4,0-6.7,0.9-9.6,2.7c-4.1,2.6-7,6.6-8.1,11.3
		c-1.1,4.7-0.3,9.6,2.3,13.7c2.6,4.1,6.6,7,11.3,8.1c4.7,1.1,9.6,0.3,13.7-2.3c4.1-2.6,7-6.6,8.1-11.3c1.1-4.7,0.3-9.6-2.3-13.7
		C345.4,289.8,341.3,287,336.6,285.8L336.6,285.8z"/>
	<path class="st0" d="M203.3,200.6l33.2-19.1c-0.6-0.7-1.1-1.5-1.7-2.3c-0.8-1.3-1.5-2.6-2-4L200,194.1c0.3,0.4,0.6,0.7,0.8,1.1
		C201.9,196.9,202.7,198.7,203.3,200.6L203.3,200.6z"/>
	<path class="st0" d="M312,194l-32.8-18.9c-0.8,2.3-2.1,4.5-3.6,6.4l33.2,19.1C309.5,198.2,310.6,196,312,194L312,194z"/>
	<path class="st0" d="M200,317.9l32.8,18.9c0.9-2.3,2.1-4.5,3.7-6.4l-33.2-19.1C202.5,313.7,201.5,315.9,200,317.9L200,317.9z"/>
	<path class="st0" d="M330.3,278.7c0.7-0.1,1.4-0.1,2.1-0.1c1.8,0,3.5,0.2,5.2,0.6v-46.3c-1.7,0.3-3.4,0.5-5.2,0.5
		c-0.7,0-1.5,0-2.2-0.1V278.7z"/>
	<path class="st0" d="M308.7,311.3l-33.2,19.1c0.6,0.7,1.1,1.5,1.7,2.3c0.8,1.3,1.5,2.6,2,4l32.8-19c-0.3-0.4-0.5-0.7-0.8-1.1
		C310.2,315,309.3,313.2,308.7,311.3L308.7,311.3z"/>
	<path class="st0" d="M174.4,279.1c1.7-0.3,3.4-0.5,5.2-0.5c0.7,0,1.5,0,2.2,0.1v-45.4c-0.7,0.1-1.4,0.1-2.1,0.1
		c-1.8,0-3.5-0.2-5.2-0.6V279.1z"/>
	<path class="st0" d="M211.8,236.5c0.9-2.3,2.2-4.4,3.8-6.3l-14.8-8.7c-1.3,2.1-2.9,4.1-4.9,5.7L211.8,236.5z"/>
	<path class="st0" d="M256,321c1.2,0,2.5,0.1,3.7,0.3v-32.4h-7.3v32.4C253.6,321.1,254.8,321,256,321L256,321z"/>
	<path class="st0" d="M298.7,287.3l10.9,6.4c1-2.3,2.3-4.4,3.9-6.3l-7.4-4.3C303.9,284.8,301.4,286.3,298.7,287.3L298.7,287.3z"/>
	<path class="st0" d="M256.1,190.9c-1.2,0-2.5-0.1-3.7-0.3v18.9c2.4-0.8,4.8-1.4,7.3-1.7v-17.2C258.5,190.8,257.3,190.9,256.1,190.9
		z"/>
	<path class="st0" d="M311.3,221.6L311.3,221.6l-13.9,8.1c1,2.3,1.8,4.7,2.3,7.2l16.5-9.6C314.2,225.6,312.6,223.7,311.3,221.6
		L311.3,221.6z"/>
	<path class="st0" d="M202.5,293.6l10.9-6.4c-2.7-1-5.1-2.4-7.3-4.2l-7.4,4.3c0.8,0.9,1.6,1.9,2.2,3
		C201.4,291.4,202,292.5,202.5,293.6L202.5,293.6z"/>
</g>
</svg>
