<?xml version="1.0" encoding="UTF-8"?>
<svg id="Icon" xmlns="http://www.w3.org/2000/svg" xmlns:xlink="http://www.w3.org/1999/xlink" version="1.1" viewBox="0 0 64 64">
  <!-- Generator: Adobe Illustrator 29.2.0, SVG Export Plug-In . SVG Version: 2.1.0 Build 108)  -->
  <defs>
    <style>
      .st0 {
        fill: #fff;
      }
    </style>
  </defs>
  <path class="st0" d="M22.2,22.2h7.4c.7,0,1.4.3,1.9.8l10.5,10.5c.5.5.8,1.2.8,1.9s-.3,1.4-.8,1.9l-7.4,7.4c-.5.5-1.2.8-1.9.8s-1.4-.3-1.9-.8l-10.5-10.5c-.5-.5-.8-1.2-.8-1.9v-7.4c0-1.5,1.2-2.7,2.7-2.7ZM25.7,31c1.5,0,2.7-1.2,2.7-2.7s-1.2-2.7-2.7-2.7-2.7,1.2-2.7,2.7,1.2,2.7,2.7,2.7Z"/>
  <path class="st0" d="M23.9,18.6h7.4c.7,0,1.4.3,1.9.8l10.5,10.5c.5.5.8,1.2.8,1.9s-.2,1.1-.5,1.6c-.2-.4-.5-.8-.8-1.1l-10.5-10.5c-.8-.8-1.9-1.3-3.1-1.3h-7.4c-.3,0-.5,0-.8,0,.3-1,1.4-1.8,2.5-1.8h0Z"/>
</svg>