<?xml version="1.0" encoding="utf-8"?>
<!-- Generator: Adobe Illustrator 27.6.1, SVG Export Plug-In . SVG Version: 6.00 Build 0)  -->
<svg version="1.1" id="Laag_1" xmlns="http://www.w3.org/2000/svg" xmlns:xlink="http://www.w3.org/1999/xlink" x="0px" y="0px"
	 viewBox="0 0 64 64" style="enable-background:new 0 0 64 64;" xml:space="preserve">
<style type="text/css">
	.st0{fill:#FFFFFF;}
</style>
<path id="Production" class="st0" d="M25.4,35.1c-0.5-0.2-1-0.3-1.3-0.4c-0.3-0.1-0.4-0.3-0.4-0.4c-0.1-0.3-0.1-0.6-0.1-0.6
	c0.6-0.7,1.1-1.5,1.1-2.5c0.6-0.2,0.7-1,0.7-1.4c0-0.4-0.1-0.7-0.3-0.8c-0.1-0.1-0.3,0-0.4,0.1c0.1-1,0.3-2.9-0.2-3.7
	c-0.4-0.8-1-1.1-1.9-0.9c-0.6-0.4-1.1-0.8-2.2-0.4c-0.8,0.3-1.7,0.6-2.1,1.2c-0.5,0.7-0.4,2.9-0.3,3.8c-0.1-0.1-0.3-0.2-0.4-0.1
	s-0.3,0.4-0.3,0.8c0,0.4,0.1,1.2,0.7,1.4c0.1,1.1,0.6,1.9,1.1,2.5c0,0,0,0.4-0.1,0.6c-0.1,0.3-0.3,0.4-0.4,0.5c-1,0.3-3.1,1-3.9,1.7
	c-1,1-1,4.6-1,4.6h7.2c0.3-1.6,0.8-3.5,1.7-4.4C23.3,36,24.3,35.5,25.4,35.1z M49.2,37c-0.3-0.4-1-0.7-1.7-1.1
	c-1-0.4-1.9-0.9-2.5-1.1c-0.3-0.1-0.4-0.3-0.4-0.4c-0.1-0.3-0.1-0.7-0.1-1c1.3-0.1,2.5-0.2,3-0.4c0.1-0.1,0.1-0.1,0.1-0.3
	c-0.3-0.6-1-2.4-1-3.4c-0.3-2.4-0.2-6.6-3.4-5.5c0,0-2-1.3-3.8,0.9c-1.1,1.6-0.9,3.6-1,4.7c-0.1,0.8-0.7,2.7-1,3.2
	c-0.1,0.1-0.1,0.3,0.1,0.3c0.5,0.2,1.7,0.4,3,0.4c-0.1,0.4-0.1,0.8-0.2,1.1c-0.1,0.3-0.2,0.4-0.4,0.4c-0.3,0.1-0.5,0.3-0.9,0.4
	c1,0.4,1.8,0.9,2.2,1.3c0.9,1,1.4,2.8,1.7,4.4h7.1C50.1,41,50.1,38,49.2,37z M35.4,35.4c-0.4-0.1-0.6-0.4-0.6-0.7
	c-0.1-0.3-0.1-0.6-0.1-0.6c0.8-0.9,1.4-1.9,1.6-3.4c0.8-0.3,1-1.1,1-1.8s-0.1-1-0.3-1c-0.1-0.1-0.2-0.1-0.3,0
	c0.1-1.2,0.2-3.7-0.4-4.6c-0.6-1-1.3-1.3-2.5-1C33,22,32.5,21.6,31,22c-1.1,0.3-2.2,0.8-2.7,1.5c-0.6,0.8-0.5,3.2-0.4,4.5
	c-0.1,0-0.3-0.1-0.4,0c-0.3,0.1-0.3,0.4-0.3,1c0,0.6,0.2,1.5,1,1.8c0.3,2,1.2,3.2,2.5,4.3c0.4,0.3,1,0.4,1.5,0.4
	c0.1,0.1,0.1,0.3-0.2,0.3c-0.4,0.1-1.5,0.3-2.7-0.4l0,0c-1,0.3-4.1,1.1-5.2,2.2c-1.1,1.2-1.7,5.9-1.7,5.9h19.9c0,0-0.4-4.6-1.7-5.9
	C39.5,36.6,36.7,35.8,35.4,35.4z"/>
</svg>
